<?xml version="1.0" standalone="no"?>
<!DOCTYPE svg PUBLIC "-//W3C//DTD SVG 1.1//EN" "http://www.w3.org/Graphics/SVG/1.1/DTD/svg11.dtd" >
<svg>
<metadata>
Created by FontForge 20090622 at Thu Mar  2 15:35:34 2017
 By deploy user
Copyright ? 1997, 2001, Berthold LLC. All rights reserved. Akzidenz-Grotesk is a trademark of Berthold Types Limited.
</metadata>
<defs>
<font id="AkzidenzGroteskBQ-Cnd" horiz-adv-x="375" >
  <font-face 
    font-family="Akzidenz-Grotesk BQ"
    font-weight="550"
    font-stretch="condensed"
    units-per-em="1000"
    panose-1="0 0 0 0 0 0 0 0 0 0"
    ascent="800"
    descent="-200"
    x-height="500"
    cap-height="706"
    bbox="-47 -250 875 908"
    underline-thickness="59"
    underline-position="-147"
    unicode-range="U+0020-U+2122"
  />
<missing-glyph horiz-adv-x="500" 
 />
    <glyph glyph-name=".notdef" horiz-adv-x="500" 
 />
    <glyph glyph-name=".null" horiz-adv-x="0" 
 />
    <glyph glyph-name="nonmarkingreturn" horiz-adv-x="208" 
 />
    <glyph glyph-name="space" unicode=" " horiz-adv-x="208" 
 />
    <glyph glyph-name="space" unicode="&#xa0;" horiz-adv-x="208" 
 />
    <glyph glyph-name="numbersign" unicode="#" horiz-adv-x="538" 
d="M230 414l-10 -107h88l10 107h-88zM398 414l-10 -107h121v-77h-129l-21 -230h-79l21 230h-87l-22 -230h-79l21 230h-119v77h125l10 107h-121v77h130l19 215h80l-20 -215h87l21 215h79l-21 -215h118v-77h-124z" />
    <glyph glyph-name="dollar" unicode="$" horiz-adv-x="396" 
d="M285 158q0 7 -1 16.5t-7 23.5q-11 25 -27 43.5t-21 23.5l1 -198q9 3 14 6t9 5q18 13 25 36.5t7 43.5zM172 636q-12 -5 -20 -13q-9 -8 -13.5 -18.5t-6.5 -20.5t-2 -17.5v-10.5q0 -21 4.5 -36.5t11 -27.5t13.5 -20.5t13 -14.5v179zM371 157q0 -35 -8.5 -60.5t-21 -43.5
t-27.5 -29.5t-28 -17.5q-17 -8 -34 -11l-23 -4v-85h-57v85q-6 1 -12.5 1.5t-12.5 2.5q-13 2 -41.5 15t-50.5 45q-11 17 -16.5 35.5t-7.5 37.5t-2 38v39v39h82v-39v-32.5t2 -31.5q0 -4 1.5 -12t5 -17t10 -18t17.5 -16q5 -3 10 -5.5t15 -5.5v261l-42 44q-8 9 -18.5 19.5
t-24.5 30.5q-24 32 -32 61t-8 71q0 19 2.5 38.5t8.5 37.5t17 34t29 28q21 14 40.5 18t27.5 5v84h57l1 -84q5 0 15 -1t23 -5t27 -11t26 -19q25 -27 30 -60.5t5 -67.5v-54h-80v39q0 35 -5 55.5t-19 33.5q-9 8 -23 11v-238l47 -51l38.5 -43t30 -42t19.5 -47t7 -58z" />
    <glyph glyph-name="percent" unicode="%" horiz-adv-x="625" 
d="M161 409q0 19 -0.5 37.5t-0.5 37.5q0 27 0.5 54t-0.5 54q0 10 -0.5 20.5t-4 19t-10.5 13.5t-21 5q-19 0 -25 -10t-8 -17q-2 -8 -2.5 -28t-0.5 -43v-66q0 -22 0.5 -43.5t0.5 -43.5v-37q0 -4 0.5 -11t3.5 -13.5t10 -11.5t21 -5q3 0 8 0.5t10 3t9.5 7.5t6.5 14q1 6 2 24.5
t1 38.5zM536 144q0 19 -0.5 37.5t-0.5 37.5q0 27 0.5 54t-0.5 54q0 10 -0.5 20t-4 18.5t-10.5 14t-21 5.5q-19 0 -25 -10t-8 -17q-2 -8 -2.5 -28t-0.5 -43v-66q0 -22 0.5 -43.5t0.5 -42.5v-38q0 -3 0.5 -10t3.5 -14t10 -12t21 -5q3 0 8 0.5t10 3t9.5 7.5t6.5 14q1 6 2 24.5
t1 38.5zM229 486q0 -27 -0.5 -53.5t-1.5 -52.5q0 -19 -2.5 -38.5t-10.5 -36.5q-8 -16 -28.5 -30.5t-60.5 -14.5q-7 0 -25.5 1.5t-38.5 14.5q-15 10 -22.5 22.5t-11 30t-4.5 40.5t-1 53q0 15 -0.5 30.5t-0.5 31.5q0 26 0.5 51t0.5 51q0 48 10 71.5t31 37.5q19 12 36 14.5
t25 2.5q7 0 22 -2t32 -11t27 -21.5t15 -28t6.5 -32.5t1.5 -34q0 -24 0.5 -48.5t0.5 -48.5zM165 0h-49l347 706h46zM604 221q0 -27 -0.5 -53.5t-1.5 -52.5q0 -18 -2.5 -38t-10.5 -37q-8 -16 -28.5 -30.5t-60.5 -14.5q-7 0 -25.5 1.5t-38.5 14.5q-15 10 -22.5 22.5t-11 30
t-4.5 40.5t-1 53q0 15 -0.5 30.5t-0.5 31.5q0 26 0.5 51t0.5 51q0 48 10 71.5t31 37.5q19 12 36 14.5t25 2.5q7 0 22 -2t32 -11t27 -21.5t15 -28t6.5 -32.5t1.5 -34q0 -24 0.5 -48t0.5 -49z" />
    <glyph glyph-name="ampersand" unicode="&#x26;" horiz-adv-x="458" 
d="M265 103q-14 18 -24 34.5l-21 36l-24.5 44.5l-32.5 62q-13 -10 -21 -19q-12 -13 -24.5 -40t-12.5 -69q0 -4 1 -14.5t4 -21.5q2 -6 7 -15t13.5 -18t22 -15.5t31.5 -6.5q17 0 30.5 5t23.5 12t17 14t10 11zM251 505q0 15 -5 25t-12.5 15.5t-15.5 7.5t-14 2q-11 0 -20.5 -3.5
t-15.5 -11.5q-8 -10 -9 -23t-1 -16q0 -20 7 -39.5t26 -53.5l14 14q17 17 31.5 37t14.5 46zM437 -4q-6 0 -17 -0.5t-24.5 2t-29 8t-30.5 16.5q-8 6 -14 12l-8 8l-18 -15q-17 -14 -34 -21.5t-32.5 -11t-28.5 -4t-20 -0.5q-36 0 -66 12t-51 33.5t-32 52t-11 66.5q0 19 8.5 58
t39.5 82q8 11 13 16.5l10 10.5l12.5 12.5l21.5 21.5q-24 51 -35 87t-11 61q0 6 0.5 15.5t5.5 23.5q3 10 10.5 24t21 26.5t34 21t49.5 8.5q8 0 19.5 -1.5t27.5 -6.5q9 -3 22 -10t25.5 -19.5t21 -31.5t8.5 -46q0 -19 -6.5 -43t-29.5 -56q-19 -28 -37 -46t-27 -26
q20 -42 43 -80.5l46 -76.5q2 3 6 10.5t7 17.5q4 14 6.5 30.5t3.5 30.5t1 24.5v13.5h77q1 -17 0 -33q0 -6 -2 -19.5t-5 -30.5t-8.5 -36.5t-13.5 -38.5q-3 -8 -8 -17.5l-14 -25.5q2 -4 4 -6.5t7 -7.5q8 -9 17.5 -13t18.5 -5.5t16 -1.5h10v-75z" />
    <glyph glyph-name="quoteright" unicode="&#x2019;" horiz-adv-x="167" 
d="M126 585q0 -25 -3 -47t-12.5 -39t-26 -29.5t-43.5 -17.5v51q26 7 32 25.5t6 41.5v9.5t-1 9.5h-37v117h85v-121z" />
    <glyph glyph-name="parenleft" unicode="(" horiz-adv-x="292" 
d="M243 -171q-24 25 -42.5 54.5t-35.5 59.5q-44 79 -70 161.5t-26 173.5q0 63 12.5 121t34.5 112.5t52.5 105.5t66.5 101l43 -38q-65 -91 -92 -186.5t-27 -206.5q0 -47 5 -96.5t15.5 -97.5t28 -94t43.5 -87l16 -23.5l16 -23.5z" />
    <glyph glyph-name="parenright" unicode=")" horiz-adv-x="292" 
d="M223 278q0 -93 -26.5 -174t-70.5 -161l-35 -59t-42 -55l-41 36q70 96 97.5 201.5t27.5 222.5q0 111 -27 205.5t-93 185.5l43 38q36 -47 66.5 -99t53 -107.5t35 -114.5t12.5 -119z" />
    <glyph glyph-name="asterisk" unicode="*" horiz-adv-x="332" 
d="M211 555l59 -80l-45 -34l-61 80l-54 -81l-46 34l54 81l-92 28l16 54l94 -26v98h57v-100l95 33l19 -52z" />
    <glyph glyph-name="plus" unicode="+" horiz-adv-x="558" 
d="M321 261v-169h-83v169h-155v73h155v170h83v-170h154v-73h-154z" />
    <glyph glyph-name="comma" unicode="," horiz-adv-x="167" 
d="M126 -4q0 -25 -3.5 -46.5t-12.5 -39t-25.5 -29.5t-43.5 -18v52q26 6 32 25t6 42v9t-1 9h-37v118h85v-122z" />
    <glyph glyph-name="hyphen" unicode="-" horiz-adv-x="266" 
d="M25 253v78h216v-78h-216z" />
    <glyph glyph-name="period" unicode="." horiz-adv-x="167" 
d="M41 0v118h85v-118h-85z" />
    <glyph glyph-name="slash" unicode="/" horiz-adv-x="292" 
d="M89 0h-84l201 706h81z" />
    <glyph glyph-name="zero" unicode="0" 
d="M258 511q0 36 -2.5 58.5t-10.5 37.5q-5 9 -18.5 19t-38.5 10q-20 0 -32.5 -6t-20 -15t-11 -19t-4.5 -18q-3 -18 -4 -63.5t-1 -100.5v-92.5t1 -92.5v-46t2 -46q2 -17 6 -30.5t18 -24.5q14 -10 27 -11.5t18 -1.5q29 0 43.5 11.5t19.5 23.5q4 9 5.5 25.5t2 33.5t0.5 33v25
v290zM347 354q0 -32 -1 -62.5t-1 -61.5v-62q0 -41 -9 -80t-43 -66q-15 -11 -39 -21t-65 -10q-11 0 -38.5 3t-56.5 20q-26 15 -39 36t-19 50.5t-6.5 68.5t-0.5 89q-1 38 -1.5 75.5t0.5 75.5q0 21 0.5 42.5t0.5 43.5v36.5t2 36.5q4 44 19.5 77t55.5 53q26 13 49 15t32 2
q11 0 35 -2.5t51 -17.5q25 -14 39.5 -34t22 -43.5t9.5 -50t2 -51.5q0 -41 0.5 -81t0.5 -81z" />
    <glyph glyph-name="one" unicode="1" 
d="M154 0v554h-117v67h24t23 2q40 4 61.5 22.5t22.5 60.5h74v-706h-88z" />
    <glyph glyph-name="two" unicode="2" 
d="M34 0v85l146 247l16 28.5l16 28.5q12 22 19.5 39.5t12 34.5t6 35.5t1.5 43.5v15.5t-3 24.5q-4 18 -11 28.5t-16 16t-18.5 7t-17.5 1.5q-18 0 -27 -5.5t-15 -11.5q-17 -17 -18.5 -39.5t-1.5 -43.5v-81h-81v88q0 8 0.5 15t0.5 14q0 8 1.5 23t7 33t17 35.5t33.5 31.5
q19 11 40 16t42 5q35 0 59.5 -10.5t41 -26t25.5 -32.5t13 -30q4 -12 7.5 -33t3.5 -52q0 -20 -4.5 -59t-26.5 -88q-8 -17 -16.5 -32.5l-18.5 -32.5l-145 -243h220v-76h-309z" />
    <glyph glyph-name="three" unicode="3" 
d="M343 169q0 -8 -1.5 -33t-10.5 -50q-5 -14 -15 -30.5t-27.5 -30.5t-43 -24t-60.5 -10q-6 0 -18 1t-27.5 4.5t-32.5 10.5t-33 19q-21 17 -32.5 45.5t-11.5 82.5q0 14 0.5 28.5t0.5 29.5l80 -1q-1 -16 -0.5 -32t1.5 -32q1 -21 5 -37t21 -29q5 -4 15.5 -8.5t26.5 -4.5
q4 0 19 2t28 12q12 9 17.5 21.5t7.5 26.5t2 28v26q0 11 0.5 21.5t0.5 21.5v9.5t-1.5 20t-5 24t-9.5 22.5q-12 18 -33.5 24t-41.5 6h-13.5t-14.5 -1l1 79l10 -0.5t23.5 0.5t28 5t24.5 13q17 15 21 39.5t4 43.5q0 32 -3 65q0 7 -2 17.5t-8.5 20.5t-18.5 16.5t-33 6.5
q-6 0 -17 -1.5t-22 -12.5q-14 -14 -18 -34.5t-4 -56.5v-13.5t1 -13.5h-80q-2 28 0 57q1 23 4 45t11.5 40.5t24 33t39.5 23.5q7 2 24.5 6t39.5 4q32 0 53 -7.5t33 -15.5q32 -21 46 -57t14 -106q0 -54 -6.5 -84t-27.5 -48q-14 -13 -28 -16t-20 -5q7 -2 18.5 -5t23.5 -10.5
t23 -20.5t17 -34q3 -11 5.5 -29.5t3.5 -38.5t1.5 -38.5t0.5 -30.5z" />
    <glyph glyph-name="four" unicode="4" 
d="M87 233h117l4 394zM287 158v-158h-83v158h-183v97l143 451h123v-473h62v-75h-62z" />
    <glyph glyph-name="five" unicode="5" 
d="M341 291q0 -30 -0.5 -60t-0.5 -61q-1 -34 -5.5 -64t-26.5 -58q-16 -21 -34.5 -32.5t-36.5 -17t-33 -6.5t-24 -1q-49 0 -75 15t-40 30q-21 24 -28 50q-5 14 -7 32.5t-2 49.5v19.5t1 19.5l83 -1q-1 -39 0.5 -63.5t10.5 -41.5q8 -17 25.5 -24t34.5 -7q24 0 37.5 9t19.5 17
q13 19 13 49.5t1 77.5q0 15 0.5 30.5t0.5 31.5q0 26 -1.5 46.5t-4.5 30.5q-2 6 -5.5 13.5t-10.5 14.5t-18 12t-27 5q-5 0 -15 -1.5t-21 -9.5q-14 -10 -18.5 -26t-4.5 -46h-80l11 382h273v-76h-193l-5 -176q1 2 5 5.5t9 6.5q14 9 34 14t37 5q10 0 30.5 -3.5t42.5 -19.5
q15 -12 24.5 -26.5t15 -35t7 -47t1.5 -62.5z" />
    <glyph glyph-name="six" unicode="6" 
d="M256 224v40.5t-1 41.5q-1 14 -2.5 28.5t-9.5 25.5q-9 15 -25 21.5t-33 6.5q-5 0 -12.5 -1t-16.5 -5t-17 -11.5t-13 -20.5q-6 -17 -7.5 -48t-1.5 -73v-70v-7.5t1 -15.5t3.5 -19t6.5 -18q6 -11 15 -17.5t18 -9.5t16.5 -3.5t10.5 -0.5q28 0 40.5 11.5t17.5 22.5
q7 15 8.5 47.5t1.5 74.5zM342 233q0 -46 -3 -94q-2 -32 -8.5 -58.5t-29.5 -48.5q-16 -16 -34 -24.5t-34.5 -12t-29.5 -4t-19 -0.5t-18 0.5t-26.5 3.5t-30 10t-29.5 19q-17 15 -26.5 33.5t-14 42t-5 54.5t-0.5 72v310q0 74 19.5 110.5t54.5 53.5q18 8 37 11.5t39 3.5
q56 0 86 -19t43 -41q17 -28 19 -57t1 -60l-82 1q0 27 -0.5 43t-6.5 28q-5 9 -19 18t-39 9q-24 0 -38 -9t-20.5 -21.5t-8.5 -25.5t-2 -20q-2 -24 -1.5 -48t0.5 -48v-54q6 7 14 15.5t19.5 16.5t27.5 13.5t37 5.5q6 0 19.5 -1.5t29.5 -8.5q23 -9 41 -27t26 -41t10 -60t2 -91z
" />
    <glyph glyph-name="seven" unicode="7" 
d="M341 641l-10 -19.5l-10 -19.5q-10 -21 -23 -55.5t-29 -86.5q-19 -62 -30.5 -117.5t-18.5 -110t-10.5 -111t-4.5 -121.5h-96q1 33 4 79.5t11 104.5t23.5 127.5t42.5 147.5q14 42 30 84l33 85h-220v78h308v-65z" />
    <glyph glyph-name="eight" unicode="8" 
d="M257 199v24t-1 24q0 6 -1 19.5t-8 27.5t-21 24t-39 10q-24 0 -36.5 -8.5t-17.5 -16.5q-12 -17 -12.5 -35t-1.5 -38q0 -11 -0.5 -22.5t-0.5 -22.5q0 -9 0.5 -18t0.5 -18q0 -7 1.5 -20.5t8 -26.5t20 -22.5t38.5 -9.5q6 0 14.5 1t18 5.5t18 13.5t13.5 24q4 13 5 34t1 51z
M255 536v7.5v17t-1 20.5t-3 19q-2 6 -5.5 14t-10.5 15t-18.5 11.5t-27.5 4.5q-5 0 -18 -1.5t-25 -11.5q-15 -13 -20 -38t-5 -65v-22.5t1 -22.5q1 -14 3.5 -26t11.5 -23q7 -8 19 -15t35 -7q15 0 26 5t17.5 11.5t10 14t5.5 13.5q2 10 3 31t2 48zM343 222v-43t-1 -32t-3 -26
t-5 -25q-8 -34 -25.5 -55t-49.5 -35q-26 -11 -46 -13t-30 -2q-11 0 -35 3t-51 18q-16 9 -28 21.5t-20.5 30.5t-12.5 43t-4 60v61t2.5 48.5t8.5 38t17 30.5q14 17 30 23t23 8q-2 0 -10.5 2t-15.5 5q-13 6 -25.5 22.5t-17.5 48.5q-2 16 -3 36.5t-1 54.5q0 21 2 42.5t8.5 41
t18.5 36.5t32 29q20 13 42.5 17t45.5 4q50 0 79.5 -16t42.5 -33q18 -23 22.5 -54t4.5 -58q0 -23 -0.5 -46t-3.5 -46q0 -5 -1.5 -15.5t-6.5 -22.5t-15 -23.5t-27 -18.5q-7 -3 -11 -3.5t-11 -2.5q8 -2 22 -7t28 -20q19 -20 25 -48t6 -79z" />
    <glyph glyph-name="nine" unicode="9" 
d="M254 555q0 19 -4 36t-19 31q-12 11 -25.5 13.5t-19.5 2.5q-30 0 -44 -14t-19 -25q-4 -8 -5.5 -15t-2 -16t-0.5 -21v-28q0 -11 -0.5 -22.5t-0.5 -22.5v-59q0 -5 1.5 -16.5t6.5 -23.5q5 -11 19 -25t44 -14q8 0 23 3t28 18q8 9 10.5 16.5t4.5 12.5q2 10 2.5 21.5t0.5 13.5
v134zM337 463q0 -57 -0.5 -114.5t-0.5 -114.5v-77q0 -6 -0.5 -19.5t-4 -31t-11.5 -36.5t-23 -36q-14 -17 -39.5 -30t-74.5 -13q-30 0 -52 7t-38.5 17.5t-26.5 23t-16 23.5q-5 11 -9 27.5t-4 45.5q0 14 0.5 26t0.5 25h80q0 -14 -0.5 -27t0.5 -27q1 -15 4 -26.5t15 -21.5
q7 -6 17.5 -10.5t30.5 -4.5q5 0 17 1.5t24 11.5q9 7 14 16t7.5 20.5t3.5 27t2 35.5q0 11 0.5 21t0.5 21q0 20 -0.5 40.5t-0.5 40.5q-6 -6 -15 -13.5t-21 -14t-28.5 -11.5t-37.5 -5t-37 5t-28 12.5t-20 15.5t-13 15q-13 19 -18.5 47.5t-5.5 76.5q0 61 3 124q2 42 10.5 75
t44.5 58q15 10 30 15.5t28.5 7.5t23.5 2.5t16 0.5q46 0 70 -11.5t39 -26.5q5 -4 12.5 -14t15.5 -25q7 -16 10.5 -32.5t4.5 -36.5t0.5 -46t-0.5 -60z" />
    <glyph glyph-name="colon" unicode=":" horiz-adv-x="208" 
d="M82 0v118h86v-118h-86zM82 359v118h86v-118h-86z" />
    <glyph glyph-name="semicolon" unicode=";" horiz-adv-x="208" 
d="M168 -4q0 -25 -3.5 -47t-12.5 -39t-26 -29.5t-44 -17.5v51q16 6 24 15t11 20t3 23.5v27.5h-38v118h86v-122zM82 364v113h86v-113h-86z" />
    <glyph glyph-name="less" unicode="&#x3c;" horiz-adv-x="559" 
d="M88 270v78l358 195v-84l-279 -147l279 -145v-91z" />
    <glyph glyph-name="equal" unicode="=" horiz-adv-x="559" 
d="M85 181v72h389v-72h-389zM85 351v72h389v-72h-389z" />
    <glyph glyph-name="greater" unicode="&#x3e;" horiz-adv-x="559" 
d="M113 76v83l279 147l-279 146v90l358 -193v-78z" />
    <glyph glyph-name="question" unicode="?" horiz-adv-x="396" 
d="M179 0v118h86v-118h-86zM360 554v-30.5t-4 -48.5q-3 -18 -7.5 -31.5t-13 -27.5l-20 -32l-27.5 -44l-10 -16.5l-10 -17.5q-11 -24 -12.5 -42t-1.5 -29v-22.5t1 -23.5h-66v39q0 23 0.5 40t4.5 35t14 40t28 56l14 24t12 25q4 9 6.5 17t3.5 17t1.5 20.5t0.5 28.5q0 8 0.5 16
t0.5 17q0 2 -0.5 12t-3.5 18q-5 13 -21 28t-48 15q-5 0 -15.5 -1.5t-21.5 -7.5q-22 -12 -26 -31.5t-4 -40.5v-90h-78v100q0 21 3 43t13 42q9 18 24 30.5t33 20.5t37.5 11.5t37.5 3.5q9 0 29 -2.5t42 -11.5t43 -27.5t32 -50.5q6 -18 7.5 -35t1.5 -36z" />
    <glyph glyph-name="at" unicode="@" horiz-adv-x="816" 
d="M502 355q0 45 -21 71.5t-56 26.5q-27 0 -51.5 -18t-43 -48t-30 -69t-11.5 -82q0 -48 18 -74t51 -26q28 0 54.5 18t46 48t31.5 69.5t12 83.5zM778 426q0 -32 -5.5 -66.5t-16 -68t-24.5 -65t-32 -56.5q-33 -48 -72 -74t-78 -26q-73 0 -77 85q-63 -84 -139 -84
q-57 0 -90 43.5t-33 118.5q0 55 17.5 106.5t46 91t66 63.5t77.5 24q44 0 77 -31q11 -11 17.5 -22.5t14.5 -31.5l15 62h65l-57 -263q-2 -7 -2.5 -14.5t-1.5 -15.5t-1.5 -17t-0.5 -14q0 -19 7.5 -30t20.5 -11q31 0 67 45q38 46 59.5 111t21.5 133q0 115 -62.5 178.5
t-177.5 63.5q-128 0 -227 -87q-45 -40 -74.5 -88.5t-49.5 -114.5q-11 -37 -16.5 -72.5t-5.5 -69.5q0 -67 22.5 -122.5t63 -95t96.5 -61.5t124 -22q85 0 170 39.5t151 109.5l31 -41l-19.5 -19.5t-15.5 -14.5q-68 -60 -151 -92.5t-169 -32.5q-53 0 -103 12t-92 35
q-84 46 -127 123.5t-43 183.5q0 101 34 189t93.5 153t139 102.5t171.5 37.5q68 0 122.5 -20t93 -57.5t59 -90.5t20.5 -119z" />
    <glyph glyph-name="A" unicode="A" horiz-adv-x="396" 
d="M195 575l-65 -363h134zM304 0l-25 136h-164l-24 -136h-91l152 706h88l156 -706h-92z" />
    <glyph glyph-name="B" unicode="B" horiz-adv-x="437" 
d="M315 194v12.5t-1 27.5t-4 33.5t-10 30.5q-2 4 -7.5 11.5t-16.5 15.5q-9 6 -17 9t-18 4.5t-23.5 1.5h-31.5h-48v-263h51h23q10 0 20 0.5t18 2.5q31 7 48 31.5t17 82.5zM305 522v11t-2.5 23.5t-8 28t-16.5 24.5q-18 15 -43.5 16.5t-45.5 1.5h-51v-211h60h21.5t21.5 2
q28 5 46 27.5t18 76.5zM402 217q0 -33 -2 -58t-7 -44t-13 -33.5t-19 -27.5q-15 -18 -30 -27.5t-23 -12.5q-14 -5 -26.5 -8t-28 -4.5t-35 -1.5h-46.5h-122v706h175q53 0 80.5 -12t45.5 -31q15 -17 23.5 -35.5t12 -36t4 -31t0.5 -20.5v-18t-3 -29.5t-9 -35.5t-18 -35
q-13 -17 -24.5 -24t-19.5 -10q-11 -5 -19.5 -6t-19.5 -1q8 0 27 -2.5t39 -16.5q26 -17 42 -50t16 -95z" />
    <glyph glyph-name="C" unicode="C" horiz-adv-x="417" 
d="M380 248v-37.5t-1 -37.5q0 -5 -0.5 -24t-3.5 -37q-5 -28 -14 -47t-20.5 -31.5t-24 -20t-24.5 -11.5q-25 -9 -47.5 -10.5t-30.5 -1.5q-30 0 -56 6t-51 25q-5 5 -14.5 13.5t-18.5 22.5q-10 15 -16 33t-9 41t-4 51.5t-1 65.5v113v59.5t1 59.5q0 20 1 44t4.5 48t10.5 46.5
t21 40.5q12 16 28 27t34.5 18t38.5 10t38 3q48 0 76 -15.5t42 -29.5q20 -21 28.5 -52.5t8.5 -89.5v-23t-1 -23h-81v38t-1 39q-1 22 -5 38t-22 30q-6 5 -17 9.5t-28 4.5q-8 0 -20 -1.5t-23.5 -8t-21.5 -19t-15 -33.5q-7 -30 -8.5 -91t-1.5 -141q0 -79 3 -158q1 -21 2 -46.5
t12 -45.5q7 -13 17.5 -20t21 -10.5t19.5 -4t13 -0.5q6 0 19.5 2t27.5 13q12 9 18.5 23.5t9.5 31t3.5 32.5t0.5 30v52h82z" />
    <glyph glyph-name="D" unicode="D" horiz-adv-x="437" 
d="M307 324q0 44 0.5 87t-1.5 87q-1 42 -5 66t-20 40q-19 17 -47 19t-51 2h-45v-547h58q17 0 35 1.5t35 9.5q11 6 20.5 16.5t14.5 36.5q2 10 3 28.5t2 42.5t1 52.5v58.5zM394 389q0 -39 -0.5 -78.5t-1.5 -78.5q0 -39 -3 -78q-4 -42 -19.5 -78t-54.5 -57q-32 -17 -66 -18
t-67 -1h-132v706h133q32 0 64 -1t63 -15q25 -11 40 -27t23 -32.5t11.5 -31.5t4.5 -23q3 -23 4 -73.5t1 -113.5z" />
    <glyph glyph-name="E" unicode="E" horiz-adv-x="396" 
d="M50 0v706h311v-79h-223v-210h195v-80h-195v-258h230v-79h-318z" />
    <glyph glyph-name="F" unicode="F" 
d="M139 627v-208h193v-77h-193v-342h-89v706h311v-79h-222z" />
    <glyph glyph-name="G" unicode="G" horiz-adv-x="437" 
d="M321 0v49l-14 -13.5l-14 -12.5q-11 -8 -37 -21t-64 -12q-12 0 -30.5 3t-38 13t-37.5 29t-28 52q-5 15 -7 29.5t-3.5 31.5t-2 39t-0.5 52q-1 28 -1 55.5v56.5q0 75 3 150v13.5t1 29t3.5 35t6.5 32.5q12 40 35 61.5t48 31.5t48 11.5t35 1.5q43 0 69.5 -8t42.5 -19
q9 -6 14.5 -11.5t8.5 -9.5q17 -20 24 -44q5 -16 5.5 -34t0.5 -51v-50h-83v35q0 9 -0.5 18t-0.5 18q0 11 -2 25t-10 27t-23.5 21.5t-43.5 8.5q-7 0 -22.5 -2t-32.5 -13q-12 -8 -18 -16q-2 -3 -5.5 -10t-5.5 -18q-5 -25 -7.5 -78t-2.5 -122v-85q0 -59 3 -119l3 -46t7 -30
q11 -22 29.5 -32t41.5 -10q8 0 26.5 3t37.5 20q4 3 11 11t12 20q5 14 7.5 39.5t2.5 61.5v72h-104v76h186v-365h-74z" />
    <glyph glyph-name="H" unicode="H" horiz-adv-x="437" 
d="M299 0v329h-161v-329h-88v706h88v-300h161v300h88v-706h-88z" />
    <glyph glyph-name="I" unicode="I" horiz-adv-x="187" 
d="M50 0v706h87v-706h-87z" />
    <glyph glyph-name="J" unicode="J" horiz-adv-x="396" 
d="M349 231v-25t-1 -25q0 -18 -0.5 -36t-3.5 -35t-9.5 -33t-19.5 -32q-8 -10 -20 -20t-28.5 -18t-39 -13t-52.5 -5q-6 0 -17 0.5t-25.5 3.5t-30 9.5t-30.5 18.5q-13 11 -21.5 21.5t-10.5 15.5q-9 16 -13.5 35.5t-6 40t-1.5 41v38.5h85v-64q0 -4 0.5 -18.5t8.5 -28.5
q6 -11 20.5 -24t45.5 -13q13 0 27 3t26 13t20 27t9 46q1 18 0.5 36t-0.5 36v480h88v-475z" />
    <glyph glyph-name="K" unicode="K" horiz-adv-x="417" 
d="M319 0l-125 361l-57 -85v-276h-87v706h87v-304l182 304h98l-167 -266l167 -440h-98z" />
    <glyph glyph-name="L" unicode="L" horiz-adv-x="354" 
d="M50 0v706h90v-627h207v-79h-297z" />
    <glyph glyph-name="M" unicode="M" horiz-adv-x="562" 
d="M431 0l12 639l-105 -639h-111l-105 639l14 -639h-86v706h132l99 -630l97 630h134v-706h-81z" />
    <glyph glyph-name="N" unicode="N" horiz-adv-x="437" 
d="M263 0l-138 612l12 -612h-87v706h121l143 -618l-12 618h85v-706h-124z" />
    <glyph glyph-name="O" unicode="O" horiz-adv-x="437" 
d="M304 363v73.5t-1 73.5q0 21 -1.5 49.5t-12.5 48.5q-6 11 -22.5 23t-45.5 12q-8 0 -22.5 -2.5t-29.5 -14.5q-26 -20 -30.5 -57t-4.5 -99v-49v-102t1 -102q0 -38 1 -62t6 -41q3 -8 7.5 -17t13.5 -17t22 -13t33 -5q22 0 41 10t28 31q11 23 13 65t3 101q1 23 1 46.5v47.5z
M394 363q0 -32 -1.5 -62.5t-2.5 -62.5q0 -16 -0.5 -31.5t-1.5 -31.5q-2 -19 -4.5 -39.5t-8 -40t-15.5 -37.5t-25 -31q-17 -15 -45.5 -26t-76.5 -11q-8 0 -24 0.5t-36 5.5t-40.5 16.5t-36.5 34.5q-5 6 -10.5 17t-10.5 28q-8 29 -9.5 87.5t-1.5 135.5q0 48 0.5 95.5t1.5 95.5
q2 61 10.5 95t27.5 58q16 21 49.5 39.5t93.5 18.5q8 0 26.5 -1.5t40 -9t43 -23t35.5 -44.5q14 -28 17 -63q2 -19 3.5 -47.5t2 -59.5t0 -59.5t-0.5 -46.5z" />
    <glyph glyph-name="P" unicode="P" horiz-adv-x="417" 
d="M303 487v34t-2 34q-3 26 -13.5 40.5t-26.5 21t-36 8t-41 1.5h-46v-259h59q15 0 29.5 0.5t27 4t23.5 12t18 24.5q6 13 7 31t1 48zM389 492q0 -2 0.5 -20t-2.5 -42t-11 -50.5t-24 -45.5q-12 -15 -29 -24t-36 -13.5t-38 -5.5t-37 -1h-74v-290h-88v706h183q26 0 44.5 -3.5
t32.5 -10t24 -15t18 -18.5q15 -19 23 -39t11 -41.5t3 -43v-43.5z" />
    <glyph glyph-name="Q" unicode="Q" horiz-adv-x="437" 
d="M306 363q1 45 0 88l-2 87q0 7 -1 24t-8.5 35t-24.5 32t-49 14q-20 0 -37 -7.5t-29 -25.5q-5 -8 -10 -19t-7 -31q-5 -32 -4.5 -81t0.5 -123v-81t1 -80q1 -23 2 -50.5t12 -47.5q11 -19 30.5 -27t39.5 -8q32 0 48 13t21 24q12 25 13 67t2 102q1 24 1.5 47.5t1.5 47.5z
M353 -113l-107 104q-8 -1 -22 -1.5t-34 1.5q-61 5 -96.5 35t-43.5 93q-6 49 -6 171q0 51 0.5 102t1.5 102q0 18 1 37t3.5 38.5t8 38t14.5 34.5q8 14 20 27.5t30.5 24t44 17t60.5 6.5q39 0 65.5 -9.5t44 -23.5t27.5 -31t15 -33q11 -32 13.5 -76t2.5 -116q0 -53 -1.5 -105.5
t-3.5 -106.5l-2 -42.5t-4 -42.5t-10 -41.5t-19 -38.5t-22.5 -26.5t-18.5 -12.5l87 -74z" />
    <glyph glyph-name="R" unicode="R" horiz-adv-x="437" 
d="M303 504q0 18 -1 38t-7 37q-7 19 -19.5 29t-28.5 14t-33.5 4h-33.5h-43v-247h46q29 0 46 1.5t31 6.5q16 7 25 21t13 30.5t4.5 34t0.5 31.5zM330 0l-120 310h-73v-310h-87v706h154q34 0 68.5 -5t63.5 -28q22 -18 33.5 -42.5t16 -48t5 -41.5t0.5 -23q0 -47 -7 -88
q-5 -30 -13 -46.5t-16 -27.5q-17 -20 -34 -27t-25 -9l126 -320h-92z" />
    <glyph glyph-name="S" unicode="S" horiz-adv-x="396" 
d="M371 160q0 -32 -6 -55t-15 -39.5t-20.5 -27.5t-22.5 -18q-17 -11 -33.5 -17t-31.5 -9t-27 -3.5t-18 -0.5q-9 0 -30.5 2t-46 11t-47.5 28.5t-35 55.5q-7 20 -9 39.5t-2 39.5v78h83v-35q0 -36 1 -56t7 -37q3 -7 8.5 -16t14.5 -16.5t23 -13t33 -5.5q26 0 48 11.5t33 34.5
q6 13 7 25t1 17q0 22 -5 39t-13.5 31t-20.5 27l-27 28l-95 98q-21 21 -36 40t-25 39t-15 43.5t-5 54.5q0 8 1 26.5t7 40.5q5 17 15.5 34.5t29 31.5t45.5 22.5t66 8.5q9 0 29 -1.5t42.5 -10.5t42.5 -27.5t29 -52.5q5 -18 5.5 -40.5t0.5 -41.5v-45h-78q0 16 -0.5 24t-0.5 12.5
v8.5v13q0 24 -6.5 45.5t-31.5 33.5q-12 5 -22 6t-15 1q-16 0 -29 -4t-24 -15q-6 -5 -9 -11t-5 -8q-3 -7 -5 -18.5t-2 -28.5q0 -5 0.5 -16.5t5.5 -24.5q8 -25 27.5 -45.5l36.5 -39.5l111 -118l11.5 -13.5t10.5 -13.5q13 -17 26 -46t13 -80z" />
    <glyph glyph-name="T" unicode="T" 
d="M231 627v-627h-87v627h-134v79h355v-79h-134z" />
    <glyph glyph-name="U" unicode="U" horiz-adv-x="437" 
d="M390 179q0 -25 -2 -49t-9 -46t-21 -40.5t-39 -31.5q-16 -9 -31.5 -13.5t-29.5 -6.5t-24.5 -2h-16.5q-32 0 -68 8.5t-61 32.5q-5 5 -13.5 17t-15.5 31q-5 14 -7.5 30t-3.5 29.5t-1 24v13.5v530h89v-468v-77t8 -51q8 -20 21.5 -28.5t20.5 -10.5t14 -3.5t21 -1.5
q20 0 35.5 4.5t28.5 21.5l6 9t6 16q2 11 3 34.5t1 52.5v502h89v-527z" />
    <glyph glyph-name="V" unicode="V" 
d="M244 0h-112l-132 706h90l98 -619l98 619h89z" />
    <glyph glyph-name="W" unicode="W" horiz-adv-x="625" 
d="M506 0h-116l-77 585l-80 -585h-118l-115 706h87l87 -619l83 619h113l81 -619l88 619h86z" />
    <glyph glyph-name="X" unicode="X" horiz-adv-x="396" 
d="M301 0l-108 306l-101 -306h-92l135 385l-126 321h97l85 -271l79 271h94l-116 -321l148 -385h-95z" />
    <glyph glyph-name="Y" unicode="Y" horiz-adv-x="396" 
d="M241 286v-286h-91v286l-150 420h93l105 -353l105 353h93z" />
    <glyph glyph-name="Z" unicode="Z" 
d="M22 0v72l232 555h-199v79h298v-67l-236 -561h236v-78h-331z" />
    <glyph glyph-name="bracketleft" unicode="[" horiz-adv-x="313" 
d="M97 -171v889h196v-63h-112v-762h112v-64h-196z" />
    <glyph glyph-name="backslash" unicode="\" horiz-adv-x="292" 
d="M203 0l-198 706h81l200 -706h-83z" />
    <glyph glyph-name="bracketright" unicode="]" horiz-adv-x="313" 
d="M19 -171v64h113v762h-113v63h197v-889h-197z" />
    <glyph glyph-name="asciicircum" unicode="^" horiz-adv-x="559" 
d="M407 358l-128 271l-127 -271h-90l177 348h80l177 -348h-89z" />
    <glyph glyph-name="underscore" unicode="_" horiz-adv-x="500" 
d="M-10 -206v59h520v-59h-520z" />
    <glyph glyph-name="quoteleft" unicode="&#x2018;" horiz-adv-x="167" 
d="M41 452v121q0 25 3.5 47t12.5 39t25.5 29.5t43.5 17.5v-51q-16 -4 -24 -13t-11 -21t-3 -25v-26h38v-118h-85z" />
    <glyph glyph-name="a" unicode="a" horiz-adv-x="354" 
d="M230 285l-14 -13.5l-14 -12.5q-6 -5 -12 -9l-13 -9l-32.5 -25t-19.5 -19q-8 -10 -16 -27t-8 -46q0 -3 0.5 -15t5.5 -25.5t16 -23.5t33 -10q23 0 36.5 11t18.5 18q14 18 16.5 39.5t2.5 43.5v123zM235 0v60q-4 -9 -11 -20.5t-19 -22.5t-30 -18.5t-44 -7.5q-8 0 -24.5 2.5
t-35.5 13.5q-32 20 -42 49.5t-10 64.5q0 32 8.5 57.5t31.5 48.5q17 18 38.5 31t59.5 40q29 20 45 34.5l28 25.5v17q0 7 -1 18.5t-6.5 23t-18 20t-35.5 8.5q-24 0 -36.5 -8.5t-17.5 -19.5t-5.5 -23.5t-0.5 -19.5q0 -10 0.5 -19t1.5 -19h-73v21.5t1 21.5q1 26 4 46.5t21 41.5
q23 26 52 34t61 8q29 0 54.5 -7t46.5 -29q12 -13 17.5 -24.5t7.5 -17.5q5 -15 5.5 -34t0.5 -51v-240q0 -32 1.5 -54.5t7.5 -34.5q4 -7 8.5 -11t6.5 -6h-98z" />
    <glyph glyph-name="b" unicode="b" 
d="M258 240v42t-1 42q-1 15 -1 30t-2 29q-1 4 -3 15.5t-8 23t-17.5 20.5t-31.5 9q-5 0 -13 -1.5t-17 -6t-17.5 -13t-14.5 -21.5q-8 -19 -8.5 -39.5t-0.5 -60.5v-114q0 -39 1.5 -64.5t9.5 -41.5q9 -17 28 -26.5t36 -9.5q7 0 15 1.5t15.5 6.5t14 14t9.5 25q4 18 5 55t1 85z
M339 298v-74.5t-2 -74.5t-5 -59.5t-11 -37.5q-3 -8 -10.5 -18t-19.5 -20t-29.5 -16.5t-41.5 -6.5q-22 0 -39 6t-29 14.5t-20 17.5l-13 15v-44h-75v706h79v-246q3 3 6.5 8t11.5 11q9 8 28.5 19t51.5 11q24 0 41.5 -6.5t30 -16.5t20 -20.5t10.5 -18.5q6 -14 9 -33.5t4.5 -40.5
t2 -41t0.5 -34z" />
    <glyph glyph-name="c" unicode="c" horiz-adv-x="354" 
d="M320 186q0 -61 -5.5 -94.5t-26.5 -58.5q-23 -26 -52 -34t-62 -8q-54 0 -82 19.5t-38 41.5q-12 26 -15 69.5t-3 106.5q0 35 1 69t3 69q0 3 1.5 16t5.5 29.5t11.5 34t20.5 30.5q20 20 47.5 26.5t54.5 6.5q35 0 66.5 -9.5t50.5 -40.5q8 -13 12.5 -26t6.5 -29t2.5 -36.5
t0.5 -48.5h-76v32t-2 33q0 2 -1 16t-9 25q-11 18 -27 21t-24 3q-18 0 -29 -5.5t-17 -13.5t-9 -17t-4 -15q-3 -18 -4.5 -58t-1.5 -91q0 -26 0.5 -52.5t1.5 -52.5v-7.5t0.5 -16t2.5 -19.5t6 -18q6 -11 13 -17t14.5 -8.5t14.5 -3t11 -0.5q8 0 17.5 2t18.5 8.5t15.5 18t8.5 30.5
q1 6 2.5 28t1.5 45h76z" />
    <glyph glyph-name="d" unicode="d" 
d="M252 249v48t-2 48q-1 18 -3.5 38.5t-13.5 37.5t-27 21.5t-24 4.5q-5 0 -13.5 -1.5t-18.5 -7.5q-13 -8 -19.5 -21t-9.5 -27.5t-3.5 -29.5t-0.5 -27q-1 -17 -1 -34.5v-34.5q0 -29 -0.5 -57.5t1.5 -57.5q1 -23 2.5 -35t5.5 -22q2 -4 6 -10.5t11 -12.5t16.5 -10.5t23.5 -4.5
q8 0 14 1t8 2q11 3 21 13t17 33q5 20 7 56.5t3 89.5zM256 0v52q-6 -10 -10 -14.5t-7 -8.5q-12 -13 -24.5 -20.5t-24.5 -11.5t-22.5 -5t-16.5 -1q-33 0 -53.5 12.5t-32 29t-16.5 33.5t-6 27q-2 16 -4.5 59.5t-2.5 93.5q0 27 0.5 54t1.5 54q2 33 5.5 52.5t9.5 33.5
q14 32 41 51t61 18q10 0 31.5 -4t43.5 -22q9 -8 13 -13l7 -9v245h81v-706h-75z" />
    <glyph glyph-name="e" unicode="e" horiz-adv-x="354" 
d="M243 320v29t-1 29q-2 29 -15.5 49t-46.5 20q-38 0 -53 -32q-8 -17 -9 -38t-1 -57v-21h126v21zM318 155q1 -32 -2.5 -62t-26.5 -57q-14 -17 -38.5 -31t-71.5 -14q-42 0 -73.5 14.5t-51.5 52.5q-7 14 -10.5 27.5t-5 29.5t-1.5 37v50q-1 23 -1 46.5v46.5q0 22 1 43t3 43
q5 43 15.5 64t27.5 35q13 11 27 16.5t26.5 8t22.5 3t16 0.5q27 0 50.5 -5t45.5 -22q5 -4 14 -12.5t16 -22.5q7 -15 11 -32.5t5 -35.5t1 -36v-33v-74h-201q-2 -44 0 -88q1 -18 2 -28.5t3 -18.5q4 -16 12 -24.5t16.5 -13t17 -5.5t14.5 -1t16 1t21 10q15 11 20 31.5t4 56.5h75z
" />
    <glyph glyph-name="f" unicode="f" horiz-adv-x="229" 
d="M143 440v-440h-79v440h-59v60h59v54q0 27 2 57.5t18 54.5q10 16 32.5 29.5t65.5 13.5q17 0 25.5 -1.5t16.5 -4.5v-69q-5 2 -12.5 4t-19.5 2q-14 0 -20 -3t-11 -7q-14 -12 -16 -30t-2 -50v-50h81v-60h-81z" />
    <glyph glyph-name="g" unicode="g" 
d="M253 244v48t-2 49q0 13 -1 25l-2 22t-4 19q-7 21 -23 33.5t-39 12.5q-13 0 -21.5 -4.5l-12.5 -6.5q-22 -17 -26.5 -53t-4.5 -90v-78v-46.5t2 -47.5q0 -3 0.5 -10t3 -15t7 -16.5t13.5 -15.5q5 -3 14 -7.5t24 -4.5t25.5 4.5t18 11t11.5 13t6 11.5q5 12 7.5 27t3 31t0.5 32
v28v28zM331 -29q-2 -54 -18.5 -78.5t-39.5 -37.5q-30 -17 -57.5 -20t-39.5 -3q-6 0 -16.5 0.5t-24 3.5t-28 9.5t-28.5 18.5l-13.5 13.5t-15.5 24.5q-6 14 -8 28t-2 30h74q0 -2 0.5 -13.5t5.5 -21.5q5 -9 19.5 -19t40.5 -10q5 0 18 1.5t26 9.5q22 15 24.5 40t2.5 47v58
l-9 -12q-5 -6 -12.5 -13t-19 -14t-26.5 -11.5t-34 -4.5q-6 0 -16.5 1t-23 5.5t-26 13.5t-23.5 24q-10 14 -15 31t-7.5 35t-2.5 36v34q0 25 -0.5 49.5t-0.5 49.5v27t1 27q1 31 4.5 65.5t20.5 63.5q15 26 42 38t57 12q22 0 38 -5.5t27.5 -13.5t19 -17t12.5 -17v44h74v-475
q0 -14 0.5 -27t-0.5 -27z" />
    <glyph glyph-name="h" unicode="h" 
d="M252 0v301v36t-1 36q-2 24 -7 37t-13 21q-15 15 -41 15q-27 0 -44 -17q-18 -20 -20.5 -49.5t-2.5 -79.5v-300h-79v706h79v-251l8.5 11t13.5 14.5t19 14t25 10.5q2 1 13.5 2.5t21.5 1.5q8 0 25 -2.5t36 -15.5q18 -12 27.5 -29.5t13.5 -37t4.5 -40.5t0.5 -40v-344h-79z" />
    <glyph glyph-name="i" unicode="i" horiz-adv-x="167" 
d="M44 0v500h79v-500h-79zM44 588v103h79v-103h-79z" />
    <glyph glyph-name="j" unicode="j" horiz-adv-x="167" 
d="M123 34v-40t-1 -40q0 -12 -1.5 -25t-4.5 -24q-5 -17 -13.5 -30.5t-23.5 -23t-37.5 -14.5t-55.5 -5q-8 0 -16.5 0.5t-16.5 0.5l1 66q14 0 36 -0.5t36 9.5q5 3 9.5 10t6.5 21q1 8 1.5 34.5t0.5 55.5v471h79v-466zM44 587v104h79v-104h-79z" />
    <glyph glyph-name="k" unicode="k" horiz-adv-x="354" 
d="M228 306l128 -306h-85l-97 232l-51 -70v-162h-79v706h79v-433l148 227h92z" />
    <glyph glyph-name="l" unicode="l" horiz-adv-x="167" 
d="M43 0v706h81v-706h-81z" />
    <glyph glyph-name="m" unicode="m" horiz-adv-x="583" 
d="M458 0v328q0 31 -1 51t-7 34q-11 23 -27.5 28.5t-26.5 5.5q-16 0 -25.5 -4.5t-14.5 -9.5q-11 -9 -16 -22.5t-6.5 -27.5t-1.5 -28.5v-26.5v-328h-81v328q0 34 -1 56t-9 36q-12 19 -29 23.5t-24 3.5q-6 0 -18.5 -2t-24.5 -14q-15 -16 -18 -40t-3 -65v-326h-80v500h75v-49
q2 3 8 10.5t14 15.5q10 9 30.5 20.5t54.5 11.5q26 0 48 -9.5t38 -29.5q3 -3 5.5 -7.5t7.5 -11.5q1 2 7.5 10t13.5 15q9 9 29 21t53 12q8 0 26 -2.5t37 -15.5q33 -23 41 -56t8 -70v-365h-82z" />
    <glyph glyph-name="n" unicode="n" 
d="M250 0v366q0 4 -0.5 17.5t-5.5 27t-17 24.5t-36 11q-15 0 -25.5 -4.5t-17.5 -11.5t-11 -14t-6 -12q-6 -15 -6.5 -32t-0.5 -49v-323h-80v500h76v-46q5 5 8.5 10t8.5 10q11 9 33 22t58 13q26 0 49 -10t37 -33q12 -20 14.5 -44.5t2.5 -69.5v-352h-81z" />
    <glyph glyph-name="o" unicode="o" horiz-adv-x="354" 
d="M235 246v55t-1 55q0 13 -1.5 29t-7 29t-16 21.5t-29.5 8.5q-16 0 -26 -5.5t-16 -13t-9 -15.5t-4 -13q-4 -16 -4.5 -48.5t-0.5 -75.5q0 -30 0.5 -60.5t0.5 -60.5q0 -22 1 -38t4 -25q11 -35 49 -35q26 0 38 14t17 38q3 17 4 54.5t1 85.5zM318 245v-48t-2 -48q-1 -23 -2 -34
t-3 -22q-3 -18 -10 -36t-22 -32.5t-40 -24t-64 -9.5q-35 0 -67 11.5t-51 43.5q-15 26 -18 56t-3 59v65v65.5t2 64.5q1 29 7 61.5t29 55.5q13 14 38.5 25t68.5 11q51 0 78.5 -18.5t40.5 -43.5t15.5 -51t2.5 -41q1 -55 0 -110z" />
    <glyph glyph-name="p" unicode="p" 
d="M256 261v40.5t-1 40.5v13.5t-1 13.5q-1 14 -4 27.5t-10 24.5t-18.5 17.5t-27.5 6.5q-26 0 -40 -16t-20 -39q-6 -22 -6.5 -55.5t-0.5 -84.5v-50t2 -50q0 -2 0.5 -9t2 -17t4 -20.5t7.5 -19.5q17 -33 53 -33q14 0 23 5t15 11.5t9 13.5t4 11q4 14 5 38t2 58q1 18 1.5 36.5
t0.5 36.5zM339 288q0 -69 -3 -138q-2 -39 -6 -62.5t-12 -40.5q-4 -8 -11.5 -17.5t-19.5 -18t-28.5 -14.5t-38.5 -6q-11 0 -33 4.5t-43 24.5q-8 8 -12 13t-6 9v-201h-82v659h79l1 -48q5 7 12.5 16.5t19.5 18.5t29 15.5t40 6.5q10 0 28.5 -3t38.5 -19q14 -11 22 -23.5
t12.5 -24t6 -21l2.5 -15.5q2 -18 3 -46t1 -69z" />
    <glyph glyph-name="q" unicode="q" 
d="M253 253q0 23 -1 44.5l-2 44.5q-2 25 -2.5 38t-5.5 25q-2 5 -6.5 12t-12 13.5t-18 10.5t-25.5 4q-26 0 -40 -16t-18 -40q-2 -17 -2.5 -57t-0.5 -88v-36t1 -36q1 -12 0.5 -24t1.5 -25q0 -5 1.5 -16t7.5 -23t17.5 -21t32.5 -9q24 0 37 11.5t18 18.5q4 5 6.5 12t4.5 20
q8 41 6 137zM252 -159v209q-3 -5 -7 -11t-9 -11q-11 -13 -23 -20.5t-23.5 -11t-21.5 -4.5t-16 -1q-9 0 -28 3.5t-39 19.5q-18 15 -28 34t-14 39t-5 42t-1 43q-1 20 -1 39.5v39.5q0 26 0.5 52t0.5 52q1 29 5 56t21 50q4 6 12 14t19.5 15.5t26.5 13t35 5.5q24 0 40.5 -7
t28 -17t18.5 -20.5t11 -17.5v53h77v-659h-79z" />
    <glyph glyph-name="r" unicode="r" horiz-adv-x="250" 
d="M256 425q-14 0 -28.5 -0.5t-28.5 -4.5q-31 -8 -46.5 -28.5t-21.5 -46.5t-5.5 -54t0.5 -52v-239h-82v500h77v-94q5 12 10.5 23t12.5 22q17 25 43 41.5t56 16.5h13v-84z" />
    <glyph glyph-name="s" unicode="s" horiz-adv-x="313" 
d="M295 128q0 -33 -9 -55.5t-21.5 -37.5t-27.5 -23.5t-27 -12.5q-19 -6 -36 -7t-23 -1q-48 0 -72.5 14.5t-36.5 31.5q-8 11 -13 24t-7.5 29t-3.5 36.5t-1 46.5h77q0 -13 0.5 -25t1.5 -25q0 -10 1 -20t6 -18q6 -10 13.5 -16t15.5 -9t14.5 -3.5t9.5 -0.5q27 0 42.5 17t15.5 43
q0 16 -4 28.5t-11 22.5t-16.5 18.5l-20.5 18.5l-62 54q-16 14 -28.5 26.5t-21.5 26.5t-14 31t-5 39q0 5 0.5 15t3 22t8 25.5t14.5 25.5q11 14 24.5 21t18.5 9q8 3 23 6.5t36 3.5q3 0 14 -0.5t25 -3.5t28.5 -9t26.5 -18q14 -15 20 -34q7 -18 8.5 -36.5t1.5 -54.5h-71v28.5
t-4 27.5q-3 10 -13 23t-36 13q-7 0 -16 -2t-17.5 -7.5t-14 -16.5t-5.5 -29q0 -5 0.5 -11t5.5 -15q8 -18 25 -33l31 -27l57 -47l15 -13t14 -13q29 -31 35 -58.5t6 -44.5z" />
    <glyph glyph-name="t" unicode="t" horiz-adv-x="229" 
d="M221 -2q-16 -5 -27 -6t-18 -1h-11.5t-22.5 2.5t-27 7.5t-24 15q-11 10 -16 23.5t-7.5 28.5t-2.5 30v28q0 9 0.5 18.5t0.5 18.5v277h-60v60h62v134h80v-134h74v-60h-74v-323q0 -11 1 -21t8 -21q5 -7 12.5 -11.5t24.5 -4.5q5 0 11 0.5t17 3.5z" />
    <glyph glyph-name="u" unicode="u" 
d="M254 0l-1 46q-5 -7 -13.5 -16.5t-21 -18t-30 -14.5t-41.5 -6q-8 0 -26.5 3t-38.5 19q-15 12 -23 28t-11 36.5t-3.5 47t-0.5 61.5v314h80v-328v-21t1 -21q0 -2 0.5 -17.5t6.5 -28.5q10 -23 26.5 -28t25.5 -5q6 0 17 2t22 11q20 15 24.5 40t4.5 70v326h79v-500h-77z" />
    <glyph glyph-name="v" unicode="v" horiz-adv-x="313" 
d="M198 0h-91l-107 500h87l66 -410l73 410h87z" />
    <glyph glyph-name="w" unicode="w" horiz-adv-x="521" 
d="M423 0h-96l-68 421l-69 -421h-98l-92 500h87l53 -428l65 428h108l65 -422l59 422h84z" />
    <glyph glyph-name="x" unicode="x" horiz-adv-x="333" 
d="M242 0l-79 198l-75 -198h-88l120 268l-104 232h93l54 -164l60 164h90l-105 -232l125 -268h-91z" />
    <glyph glyph-name="y" unicode="y" horiz-adv-x="333" 
d="M234 64q-3 -14 -5.5 -27t-5.5 -27q-7 -36 -17.5 -75.5t-38.5 -67.5q-21 -20 -44 -25t-51 -5h-52v69q26 -1 53 0q7 1 16.5 2.5t18.5 7.5t15 17t6 31q0 16 -3 30.5t-7 30.5l-113 475h86l79 -402l64 402h85z" />
    <glyph glyph-name="z" unicode="z" horiz-adv-x="292" 
d="M9 0v66l188 366h-163v68h247v-68l-187 -366h187v-66h-272z" />
    <glyph glyph-name="braceleft" unicode="{" horiz-adv-x="354" 
d="M322 -171q-19 0 -38 0.5t-37 5.5q-37 9 -58.5 26.5t-32.5 42t-14 54t-3 62.5v74q0 26 -1 51t-9 45t-25 33t-49 16v69q12 0 24 2.5t22 9.5q15 10 23 24.5t11 31.5t3.5 34.5t0.5 33.5v89q0 30 3 58t13.5 51t30 40.5t53.5 27.5q21 6 43.5 7t44.5 1v-67l-12 -1
q-32 -3 -50 -13t-26.5 -27.5t-10.5 -41t-2 -51.5v-36v-61.5t-7.5 -62t-25 -52t-53.5 -30.5v-4q36 -7 54 -29.5t25 -52t7 -62.5v-61v-49q0 -27 3 -48.5t12.5 -36.5t27 -24t46.5 -11l12 -1v-67h-5z" />
    <glyph glyph-name="bar" unicode="|" horiz-adv-x="229" 
d="M74 -250v998h81v-998h-81z" />
    <glyph glyph-name="braceright" unicode="}" horiz-adv-x="354" 
d="M327 239q-31 0 -48 -13t-25 -33t-9.5 -44t-1.5 -47v-79q0 -32 -2 -61.5t-11.5 -54t-30 -42.5t-56.5 -28q-22 -6 -44 -6.5t-44 -1.5v67l12 1q32 3 49.5 13t26 27.5t10.5 40.5t2 51q0 25 0.5 50t1.5 50q1 23 4 46.5t11.5 43t24.5 33.5t44 19v4q-8 4 -15.5 5.5t-15.5 6.5
q-23 13 -34.5 36.5t-16 51t-4.5 55.5v51v49q0 27 -3 48.5t-12 36.5t-26.5 24t-46.5 11l-12 1v67q33 -1 62.5 -4t53.5 -14t41.5 -33t25.5 -60q3 -16 4.5 -36t1.5 -41t-0.5 -41t-0.5 -36q0 -18 0.5 -38.5t5 -40t14.5 -35.5t30 -25q8 -3 17 -4t17 -2v-69z" />
    <glyph glyph-name="asciitilde" unicode="~" horiz-adv-x="565" 
d="M501 301q-18 -21 -29 -31t-28 -20q-33 -20 -67 -20q-19 0 -38.5 5.5t-52.5 20.5l-26 12q-26 12 -43 17t-33 5q-21 0 -38 -10t-38 -34l-7 -8l-37 61l14.5 16l10 10.5l8.5 8.5t10 9q33 27 78 27q17 0 35 -4.5t43 -15.5l54 -24q25 -11 36.5 -14t23.5 -3q21 0 40.5 11.5
t45.5 40.5z" />
    <glyph glyph-name="exclamdown" unicode="&#xa1;" horiz-adv-x="208" 
d="M41 0v223l21 291h45l19 -291v-223h-85zM41 589v117h85v-117h-85z" />
    <glyph glyph-name="cent" unicode="&#xa2;" horiz-adv-x="354" 
d="M315 183q0 -61 -7.5 -101t-37.5 -64q-9 -7 -20 -12t-21 -8.5t-17 -5l-7 -1.5v-73h-54v73q-10 1 -26 4.5t-32.5 13.5t-31 29t-20.5 51q-2 11 -3 24.5t-2 36.5q-1 17 -1 29.5v28.5q0 30 1 53.5t2 53.5q1 20 1 35t2 35q0 4 1.5 15t5.5 24q5 16 13.5 31.5t25.5 28.5
q16 13 32 17.5t32 7.5v65h54v-65q3 0 11.5 -1.5t20 -5.5t24.5 -12t24 -22q12 -15 18.5 -34t9 -39.5t2.5 -39.5v-34h-75v16v23t-2 24q0 6 -1.5 17t-7 22t-18 19t-34.5 8q-18 0 -29 -7.5t-17 -17t-8 -19.5l-3 -15q-1 -8 -2 -35.5t-1.5 -59.5t-1 -59.5t-0.5 -35.5v-20t0.5 -32
t1 -32t2.5 -20q4 -13 8.5 -20t10.5 -12q11 -10 22.5 -11.5t14.5 -1.5q27 0 40.5 14t19 30.5t5 30.5t-0.5 15q0 8 0.5 15.5t0.5 15.5v10h75z" />
    <glyph glyph-name="sterling" unicode="&#xa3;" horiz-adv-x="458" 
d="M140 88q-14 9 -22.5 12.5t-17.5 3.5q-15 0 -20.5 -7t-5.5 -13q1 -6 5.5 -13.5t18.5 -7.5q19 0 29.5 10.5t12.5 14.5zM435 233q1 -26 1 -50.5t-2 -49.5q-2 -23 -5.5 -44.5t-15.5 -42.5q-11 -20 -25 -31t-28 -16.5t-26.5 -7t-20.5 -1.5q-22 0 -41 6t-34 14t-25 16l-15 12
q-5 -5 -8.5 -9t-8.5 -8q-8 -7 -29 -18t-51 -11q-10 0 -20 1.5t-18 5.5q-23 10 -37.5 31.5t-14.5 47.5q0 11 1.5 17.5t3.5 11.5q7 19 18.5 30t24 16.5t23.5 7t17 1.5q27 0 43 -9.5l24 -14.5q2 17 2 33.5t-2.5 35.5t-9 42.5t-16.5 55.5h-99v75h74q-9 24 -15.5 43.5t-11 38
t-6.5 38.5t-2 46q0 6 0.5 22.5t5 36.5t15.5 41.5t32 37.5q17 14 45.5 23.5t76.5 9.5q6 0 22 -1t34.5 -6.5t38 -17t33.5 -33.5q15 -23 21 -56.5t6 -90.5v-12t-1 -13h-87q0 57 -3 93.5t-29 54.5q-12 8 -24.5 9t-17.5 1q-22 0 -37 -8t-24.5 -21.5t-13.5 -31.5t-4 -37
q0 -20 3 -40.5t7 -37.5t7.5 -30t5.5 -17q7 -23 18 -42h134v-75h-112l15 -63.5t6 -65.5q0 -30 -4.5 -48t-9.5 -31q4 -2 7 -4.5t7 -4.5q8 -5 24.5 -11t27.5 -6q19 0 29 10t12 15q3 6 5.5 16.5t3.5 21.5t1.5 21.5t0.5 17.5q0 30 -3 60h81z" />
    <glyph glyph-name="yen" unicode="&#xa5;" horiz-adv-x="396" 
d="M272 359h87v-58h-108l-10 -27v-27h118v-57h-118v-190h-88v190h-117v57h117v27l-9 27h-108v58h86l-122 347h95l103 -358l104 358h94z" />
    <glyph glyph-name="florin" unicode="&#x192;" horiz-adv-x="271" 
d="M260 644q-2 1 -6 1h-2q-20 0 -30.5 -5.5t-16.5 -15.5t-8 -23t-3 -28l-8 -73h71l-8 -60h-69l-42 -404q-6 -59 -14.5 -100t-38.5 -62q-10 -7 -27.5 -11.5t-42.5 -4.5q-16 0 -26 1.5t-17 3.5l7 68q19 -3 27 -3q18 0 28 8.5t15 22.5t7.5 33.5t4.5 42.5l41 405h-61l7 60h61
l11 113q1 14 4 32t13.5 34t31 27t56.5 11q8 0 17.5 -0.5t24.5 -2.5z" />
    <glyph glyph-name="section" unicode="&#xa7;" horiz-adv-x="417" 
d="M319 287q0 22 -11 36.5t-27 25t-35 18t-35 14.5l-40.5 17l-40.5 18q-16 -15 -27.5 -31t-11.5 -39q0 -32 27 -54q10 -8 31.5 -19t46.5 -22.5l48.5 -21.5t37.5 -17q15 15 26 33.5t11 41.5zM389 316q0 -44 -18 -74.5t-46 -61.5q12 -14 20.5 -27t14 -26.5t7.5 -29.5t2 -35
q0 -91 -45 -128.5t-130 -37.5q-86 0 -124 42t-38 123v38h87v-37q0 -39 18 -64.5t61 -25.5q42 0 63 22t21 63q0 35 -13 53.5t-42 35.5q-16 9 -36.5 17.5l-41.5 17.5l-40.5 18t-32.5 19q-28 20 -41 44t-13 59q0 42 18.5 71.5t48.5 57.5q-22 23 -30.5 48t-8.5 57
q0 83 39.5 120.5t121.5 37.5q79 0 116 -34.5t37 -112.5v-19.5t-1 -19.5h-80q0 21 -1 41.5t-7.5 37t-22 26.5t-44.5 10q-38 0 -56.5 -20t-18.5 -58q0 -23 8 -38.5t21.5 -26t31 -18l35.5 -15.5l36 -15.5l36 -15.5q39 -19 63.5 -46t24.5 -73z" />
    <glyph glyph-name="currency" unicode="&#xa4;" horiz-adv-x="627" 
d="M481 338q0 40 -12.5 74.5t-35 60t-53 39.5t-66.5 14t-67 -14.5t-53.5 -39.5t-35.5 -59t-13 -73q0 -40 13 -74t36 -59t54.5 -39.5t67.5 -14.5q35 0 65 14.5t52.5 39t35 58.5t12.5 73zM515 494q26 -43 37 -77.5t11 -75.5q0 -44 -11.5 -82t-37.5 -76l71 -76l-53 -55l-72 76
q-38 -28 -72.5 -40t-76.5 -12q-21 0 -38.5 2.5t-34.5 8.5t-34.5 16t-38.5 25l-72 -74l-52 55l72 74q-28 44 -38.5 78.5t-10.5 78.5t10.5 78.5t38.5 76.5l-70 74l52 55l70 -73q39 28 73 39.5t76 11.5t76.5 -12t70.5 -39l72 74l53 -56z" />
    <glyph glyph-name="quotesingle" unicode="'" horiz-adv-x="136" 
d="M83 452h-29l-25 289h77z" />
    <glyph glyph-name="quotedblleft" unicode="&#x201c;" horiz-adv-x="313" 
d="M41 452v121q0 25 3.5 47t12.5 39t25.5 29.5t43.5 17.5v-51q-20 -5 -29 -22t-9 -37v-26h38v-118h-85zM187 452q0 30 -0.5 60.5t-0.5 60.5q0 24 3.5 46t12.5 40t26 30t44 17v-51q-15 -4 -23 -13t-11 -21t-3.5 -25.5t-0.5 -25.5h38v-118h-85z" />
    <glyph glyph-name="guillemotleft" unicode="&#xab;" horiz-adv-x="354" 
d="M22 238v86l140 156v-116l-74 -83l74 -84v-117zM185 238v86l139 156v-116l-74 -83l74 -84v-117z" />
    <glyph glyph-name="guilsinglleft" unicode="&#x2039;" horiz-adv-x="187" 
d="M20 238v86l140 156v-116l-74 -83l74 -84v-117z" />
    <glyph glyph-name="guilsinglright" unicode="&#x203a;" horiz-adv-x="187" 
d="M28 80v117l74 84l-74 83v116l139 -156v-86z" />
    <glyph glyph-name="endash" unicode="&#x2013;" horiz-adv-x="371" 
d="M25 253v78h321v-78h-321z" />
    <glyph glyph-name="dagger" unicode="&#x2020;" 
d="M229 394v-507h-79v507h-126v73h126v239h79v-239h122v-73h-122z" />
    <glyph glyph-name="daggerdbl" unicode="&#x2021;" 
d="M228 119v-232h-78v232h-126v73h126v236h-126v72h126v206h78v-206h123v-72h-123v-236h123v-73h-123z" />
    <glyph glyph-name="periodcentered" unicode="&#xb7;" horiz-adv-x="167" 
d="M41 209v118h85v-118h-85z" />
    <glyph glyph-name="paragraph" unicode="&#xb6;" horiz-adv-x="632" 
d="M465 643v-810h-58v810h-121v-810h-58v486q-142 36 -142 187q0 46 15 85t44 65q15 14 31.5 23.5t37 15.5t47 8.5t62.5 2.5h176v-63h-34z" />
    <glyph glyph-name="bullet" unicode="&#x2022;" horiz-adv-x="341" 
d="M77 232v249h186v-249h-186z" />
    <glyph glyph-name="quotesinglbase" unicode="&#x201a;" horiz-adv-x="167" 
d="M126 -4q0 -25 -3.5 -46.5t-12.5 -39t-25.5 -29.5t-43.5 -18v52q26 6 32 25t6 42v9t-1 9h-37v118h85v-122z" />
    <glyph glyph-name="quotedblbase" unicode="&#x201e;" horiz-adv-x="313" 
d="M126 -4q0 -25 -3 -47t-12.5 -39t-26 -29.5t-43.5 -17.5v51q24 9 31 26t7 41v9.5t-1 9.5h-37v118h85v-122zM272 -4q0 -24 -3.5 -46t-12.5 -39.5t-25.5 -30t-43.5 -17.5v51q3 2 6.5 3t6.5 3q21 16 22.5 36.5t1.5 43.5h-37v118h85v-122z" />
    <glyph glyph-name="quotedblright" unicode="&#x201d;" horiz-adv-x="313" 
d="M126 585q0 -25 -3 -47t-12.5 -39t-26 -29.5t-43.5 -17.5v51q24 9 31 26t7 41v9t-1 9h-37v118h85v-121zM272 585q0 -24 -3.5 -46t-12.5 -39.5t-25.5 -30t-43.5 -17.5v51q7 1 13 6q21 17 22.5 36t1.5 43h-37v118h85v-121z" />
    <glyph glyph-name="guillemotright" unicode="&#xbb;" horiz-adv-x="354" 
d="M30 80v117l74 84l-74 83v116l140 -156v-86zM192 80v117l74 84l-74 83v116l140 -156v-86z" />
    <glyph glyph-name="ellipsis" unicode="&#x2026;" horiz-adv-x="1000" 
d="M125 0v100h84v-100h-84zM458 0v100h84v-100h-84zM791 0v100h84v-100h-84z" />
    <glyph glyph-name="perthousand" unicode="&#x2030;" horiz-adv-x="875" 
d="M161 409q0 19 -0.5 37.5t-0.5 37.5q0 27 0.5 54t-0.5 54q0 10 -0.5 20.5t-4 19t-10.5 13.5t-21 5q-19 0 -25 -10t-8 -17q-2 -8 -2.5 -28t-0.5 -43v-66q0 -22 0.5 -43.5t0.5 -43.5v-37q0 -4 0.5 -11t3.5 -13.5t10 -11.5t21 -5q3 0 8 0.5t10 3t9.5 7.5t6.5 14q1 6 2 24.5
t1 38.5zM536 144q0 19 -0.5 37.5t-0.5 37.5q0 27 0.5 54t-0.5 54q0 10 -0.5 20t-4 18.5t-10.5 14t-21 5.5q-19 0 -25 -10t-8 -17q-2 -8 -2.5 -28t-0.5 -43v-66q0 -22 0.5 -43.5t0.5 -42.5v-38q0 -3 0.5 -10t4 -14t10.5 -12t21 -5q5 0 17.5 3.5t15.5 21.5q1 6 2 24.5t1 38.5z
M786 144v75q0 27 0.5 54t-0.5 54q0 10 -1 20t-4 18.5t-10.5 14t-21.5 5.5q-19 0 -24.5 -10t-7.5 -17q-2 -8 -3 -28t-1 -43v-66q0 -22 0.5 -43.5t0.5 -42.5v-38q0 -3 0.5 -10t4 -14t10.5 -12t21 -5q5 0 17.5 3.5t15.5 21.5q1 6 2 24.5t1 38.5zM229 486q0 -27 -0.5 -53.5
t-1.5 -52.5q0 -19 -2.5 -38.5t-10.5 -36.5q-8 -16 -28.5 -30.5t-60.5 -14.5q-7 0 -25.5 1.5t-38.5 14.5q-15 10 -22.5 22.5t-11 30t-4.5 40.5t-1 53q0 15 -0.5 30.5t-0.5 31.5q0 26 0.5 51t0.5 51q0 48 10 71.5t31 37.5q19 12 36 14.5t25 2.5q7 0 22 -2t32 -11t27 -21.5
t15 -28t6.5 -32.5t1.5 -34q0 -24 0.5 -48.5t0.5 -48.5zM165 0h-49l347 706h46zM604 221v-53.5t-1 -52.5q0 -18 -3 -38t-11 -37q-8 -16 -28.5 -30.5t-60.5 -14.5q-7 0 -25.5 1.5t-38.5 14.5q-15 10 -22.5 22.5t-11 30t-4.5 40.5t-1 53q0 15 -0.5 30.5t-0.5 31.5q0 26 0.5 51
t0.5 51q0 48 10 71.5t31 37.5q19 12 36 14.5t25 2.5q7 0 22 -2t32 -11t27 -21.5t15 -28t6.5 -32.5t1.5 -34q0 -24 0.5 -48t0.5 -49zM854 221q0 -27 -1 -53.5l-2 -52.5q0 -18 -2 -38t-10 -37q-8 -16 -28.5 -30.5t-60.5 -14.5q-7 0 -25.5 1.5t-38.5 14.5q-15 10 -22.5 22.5
t-11 30t-4.5 40.5t-1 53q0 15 -0.5 30.5t-0.5 31.5q0 26 0.5 51t0.5 51q0 48 10 71.5t31 37.5q19 12 36 14.5t25 2.5q7 0 22 -2t32 -11t27 -21.5t15 -28t6.5 -32.5t1.5 -34q0 -24 0.5 -48t0.5 -49z" />
    <glyph glyph-name="questiondown" unicode="&#xbf;" horiz-adv-x="396" 
d="M338 140q0 -32 -3.5 -50t-11.5 -33q-9 -18 -24 -30.5t-33 -21t-37.5 -12t-38.5 -3.5q-10 0 -34 3t-51 17q-28 15 -42 35.5t-20 41.5t-6.5 39t-0.5 27v31.5t4 49.5q3 16 8 29.5t13 27.5t20 32t27 43l9.5 15.5t8.5 15.5q7 14 11.5 29t4.5 46q0 11 -0.5 22.5t-0.5 22.5h66
v-39q0 -25 -0.5 -42.5t-5.5 -35.5t-15.5 -41t-30.5 -59l-10.5 -20t-10.5 -21q-4 -9 -6.5 -17t-4 -17t-2 -21t-0.5 -30q0 -8 -0.5 -15t-0.5 -15q0 -2 1 -12t4 -18q5 -13 20.5 -29t48.5 -16q5 0 16 1.5t22 8.5q20 11 24 31t4 40v91h78v-101zM131 589v117h85v-117h-85z" />
    <glyph glyph-name="grave" unicode="`" horiz-adv-x="229" 
d="M132 564l-99 107h109l54 -107h-64z" />
    <glyph glyph-name="acute" unicode="&#xb4;" horiz-adv-x="229" 
d="M98 564h-65l53 107h110z" />
    <glyph glyph-name="circumflex" unicode="&#x2c6;" horiz-adv-x="229" 
d="M160 563l-54 63l-57 -63h-67l102 110h65l98 -110h-87z" />
    <glyph glyph-name="tilde" unicode="&#x2dc;" horiz-adv-x="229" 
d="M241 658q-2 -14 -2.5 -20t-2.5 -14q-2 -5 -6 -14t-12.5 -18t-21 -16t-30.5 -7q-19 0 -41.5 9t-38.5 14q-14 5 -20.5 6.5t-13.5 1.5q-10 0 -15.5 -4t-8 -9.5t-3 -10.5t-0.5 -7h-36q0 4 0.5 12t3 17.5t7.5 20.5t15 20q14 12 25 16q7 2 14 3t9 1q9 0 16.5 -1t16 -3.5
t19 -6.5t24.5 -10q14 -5 22.5 -7.5t16.5 -2.5q10 0 15 3.5t7.5 8.5t3 10t0.5 8h37z" />
    <glyph glyph-name="macron" unicode="&#xaf;" horiz-adv-x="229" 
d="M6 575v64h217v-64h-217z" />
    <glyph glyph-name="dieresis" unicode="&#xa8;" horiz-adv-x="229" 
d="M-2 563v103h79v-103h-79zM153 563v103h78v-103h-78z" />
    <glyph glyph-name="cedilla" unicode="&#xb8;" horiz-adv-x="229" 
d="M208 -128q0 -11 -4 -22t-9 -20q-10 -15 -32 -31t-64 -16q-17 0 -33 3t-45 17l13 24q6 -2 20.5 -8t34.5 -6t39 13.5t19 36.5q0 16 -11 27.5t-28 10.5q-11 0 -19 -5.5l-11 -7.5l-21 8l37 109h28l-28 -79q13 5 22 7.5t23 2.5q29 0 49 -17.5t20 -46.5z" />
    <glyph glyph-name="emdash" unicode="&#x2014;" horiz-adv-x="567" 
d="M25 253v78h517v-78h-517z" />
    <glyph glyph-name="AE" unicode="&#xc6;" horiz-adv-x="625" 
d="M297 617l-127 -386h127v386zM297 0v155h-153l-52 -155h-92l249 706h343v-79h-208v-210h178v-80h-178v-258h221v-79h-308z" />
    <glyph glyph-name="ordfeminine" unicode="&#xaa;" horiz-adv-x="229" 
d="M139 553q-14 -11 -26 -19.5t-20.5 -17t-13.5 -19t-5 -26.5l0.5 -5.5t3 -12t8 -12t16.5 -5.5q15 0 22.5 9.5t11 22t3.5 25.5v19v41zM141 392v21q-8 -9 -20 -17.5t-33 -8.5q-20 0 -33.5 7t-22.5 19t-13 27.5t-4 31.5q0 23 6 38t17 27t27.5 23t36.5 26q10 7 17.5 13l16.5 13
v15t-2 15.5t-8 12.5t-18 5q-13 0 -19.5 -5.5t-8.5 -13t-2 -14v-7.5v-25h-53v30q0 31 5 42q12 28 36 36.5t44 8.5q33 0 50.5 -11t25.5 -26t9 -31t1 -26v-172q0 -21 6 -32.5t15 -21.5h-76z" />
    <glyph glyph-name="Oslash" unicode="&#xd8;" horiz-adv-x="437" 
d="M306 428q0 19 -0.5 37.5t-0.5 36.5l-170 -339q1 -25 6.5 -49t28.5 -39q16 -10 29 -11.5t20 -1.5q24 0 39 8.5t23 20.5t11.5 24t4.5 20q3 19 4 64t3 99q1 33 1.5 65t0.5 65zM299 582q-3 14 -6 21t-7 12q-8 10 -17.5 15.5t-19 8.5t-17 3.5t-10.5 0.5q-7 0 -17.5 -1.5
t-22 -7.5t-22 -17t-16.5 -30q-8 -23 -9 -70.5t-1 -110.5q0 -38 0.5 -76.5t-0.5 -76.5zM374 639q2 -6 5 -13t6 -20q8 -31 9 -83.5t1 -127.5q0 -27 -0.5 -54t-1.5 -54q-1 -26 -1 -52t-2 -52q-1 -20 -4 -42t-9 -43t-17 -40.5t-28 -33.5t-44.5 -24t-74.5 -10q-7 0 -19 0.5
t-27.5 3t-32.5 9t-33 18.5q-4 3 -10 8.5t-14 15.5l-22 -45l-37 20l37 74q-3 19 -5.5 37t-3.5 39.5t-1.5 49t-0.5 65.5q0 51 0.5 101t1.5 101q1 60 7 95t20 60q8 13 19.5 26.5t29.5 24t42.5 17.5t58.5 7q4 0 15 -0.5t25.5 -3t31 -7t30.5 -13.5q6 -4 11 -8l10 -8l20 38l36 -19
z" />
    <glyph glyph-name="OE" unicode="&#x152;" horiz-adv-x="646" 
d="M321 476q0 20 0.5 39t-1.5 39q-2 23 -8.5 41.5t-25.5 32.5q-13 9 -26 11.5t-27 2.5q-6 0 -16 -1t-21.5 -5t-22.5 -13t-19 -24q-14 -26 -16.5 -70t-2.5 -108v-69v-74.5t2 -74.5q1 -38 5 -61.5t13 -39.5q8 -12 26.5 -24t51.5 -12q19 0 34.5 5t28.5 19q4 5 8.5 12t8.5 20
q5 19 6.5 49.5t1.5 75.5v229zM370 0q-18 0 -36 -1.5t-36 -3.5q-22 -2 -42.5 -3.5t-42.5 -1.5h-19.5t-25.5 3t-29.5 10t-31.5 21q-25 20 -36 45t-17 56q-4 23 -6 51.5t-3 53.5t-1 42.5v19.5q0 54 0.5 107.5t3.5 109.5q1 24 3 47t7 44t15.5 40t29.5 36q27 24 57.5 32.5
t64.5 8.5q14 0 26.5 -1t25.5 -3l19.5 -2t20.5 -2q28 -3 56 -3h242v-79h-209v-210h178v-80h-178v-258h220v-79h-256z" />
    <glyph glyph-name="ordmasculine" unicode="&#xba;" horiz-adv-x="229" 
d="M143 555q0 15 -0.5 29.5t-0.5 29.5q0 6 -0.5 14t-3 15t-8 12t-16.5 5t-15.5 -5t-7.5 -11q-2 -2 -2.5 -11.5t-1 -22t-0.5 -27.5v-28v-32.5t0.5 -32.5t2 -26t3.5 -14q3 -5 7 -9t14 -4q9 0 14.5 4t8 9.5t3.5 10.5t1 6t0.5 10.5t0.5 23t0.5 28t0.5 26.5zM206 554v-32.5
t-1 -32.5q0 -9 -1.5 -26t-10 -34t-27 -29.5t-53.5 -11.5t-51 11q-27 16 -33 40.5t-6 68.5v46v32t1 32q1 10 3 26t10.5 31t26.5 26t50 11q39 0 58 -15t26.5 -37.5t7.5 -49v-49.5v-7z" />
    <glyph glyph-name="ae" unicode="&#xe6;" horiz-adv-x="542" 
d="M235 269l-18 -13.5l-19 -13.5l-33 -23.5t-28 -25t-19.5 -30t-7.5 -40.5q0 -27 14 -47.5t44 -20.5q35 0 54 29q8 12 11 26.5t3 43.5zM430 354q0 11 -1 27t-5 27q-9 26 -27.5 32.5t-28.5 6.5q-5 0 -14.5 -2t-20.5 -10q-19 -15 -21 -37.5t-2 -43.5v-53h120v53zM505 145
v-10.5t-1 -19.5t-3.5 -24t-6.5 -24q-5 -13 -14 -26.5t-24.5 -24.5t-38 -18t-52.5 -7q-47 0 -71 15.5t-38 31.5q-13 -12 -24.5 -20.5t-23.5 -14.5t-26 -9t-32 -3q-26 0 -44.5 7t-31.5 17t-20.5 21.5t-11.5 21.5q-4 9 -6.5 23t-2.5 37q0 43 8.5 63t22.5 36q9 10 18 18t21 16.5
t27.5 18.5l36.5 24l35 26l34 27v32q0 6 -0.5 17t-5.5 22t-16.5 19t-33.5 8q-5 0 -15 -1.5t-20 -9.5q-18 -15 -20.5 -38t-2.5 -43v-16h-73q1 28 1.5 60t14.5 58q10 19 35 36.5t75 17.5q9 0 31.5 -2t45.5 -15q5 -3 9.5 -6t12.5 -10l12 8.5l8 5.5q9 5 28.5 12t48.5 7t48 -7
t30 -14q22 -14 33.5 -32.5t16.5 -39.5t5.5 -44t0.5 -45v-91h-195v-111q0 -22 5.5 -36t14.5 -22.5t19.5 -11.5t21.5 -3q4 0 13.5 1.5t17.5 7.5q10 7 15.5 16.5t7.5 19t2.5 17t0.5 9.5q1 7 1 13v13v13h76v-17z" />
    <glyph glyph-name="oslash" unicode="&#xf8;" horiz-adv-x="354" 
d="M235 281v22.5t-1 22.5l-112 -198v-12.5t2 -20.5q5 -19 17.5 -30t32.5 -11q18 0 35 11t22 48q1 7 2 24.5t1.5 40.5t0.5 49.5v53.5zM231 393q0 1 -1.5 7.5t-3.5 11.5q-3 8 -13.5 20.5t-34.5 11.5q-21 0 -31 -9t-15 -17q-11 -19 -12 -61t-1 -97v-62zM301 444q1 -3 3 -7.5
t4 -12.5q6 -23 8 -54t2 -82v-69t-2 -69q-1 -32 -7 -66t-31 -59q-13 -13 -36.5 -23.5t-64.5 -10.5q-4 0 -14 0.5t-23 2.5t-27.5 7.5t-27.5 14.5q-5 4 -9.5 8t-9.5 9l-21 -42l-31 22l31 57q-4 17 -6 35.5t-3 53.5q-1 16 -1 31.5v31.5q0 31 0.5 61t1.5 60v17.5t3.5 34.5t11 41
t22.5 37q13 13 30 20.5t32.5 11t28 4t16.5 0.5q31 0 51.5 -6.5t31.5 -14.5q4 -2 8 -5.5t7 -5.5l22 34l27 -22z" />
    <glyph glyph-name="oe" unicode="&#x153;" horiz-adv-x="542" 
d="M238 247q1 26 0.5 50.5t-1.5 50.5q0 13 -0.5 28.5t-4.5 27.5q-2 4 -5 11.5t-9.5 14t-16.5 11.5t-24 5q-25 0 -38 -16t-17 -39q-1 -6 -2 -19.5t-2 -32t-1.5 -39.5t-0.5 -42v-55.5t2 -55.5q1 -28 3 -42t10 -28q14 -24 46 -24q6 0 17 2t21 13q8 9 12 20t6 25t2 32t1 40
q1 16 1.5 31t0.5 31zM430 303q0 42 -1 70.5t-11 45.5q-11 18 -26.5 21.5t-22.5 3.5q-5 0 -13 -1t-18 -8t-15.5 -18t-7.5 -23t-2.5 -24t-0.5 -22v-45h118zM506 163q0 -8 -0.5 -16t-0.5 -16q-3 -56 -18.5 -82t-39.5 -40q-9 -5 -28 -11.5t-47 -6.5q-41 0 -62.5 14.5t-34.5 26.5
q-4 -4 -8 -7.5l-9 -7.5q-11 -8 -33.5 -17t-56.5 -9q-41 0 -66 14.5t-36 27.5q-7 8 -10.5 15t-5.5 12q-11 29 -12.5 75.5t-1.5 113.5q0 21 0.5 42.5t1.5 42.5v21t1 21q5 56 24.5 82t43.5 37q9 4 27 9t43 5q40 0 63.5 -14t35.5 -23q23 20 43.5 28.5t51.5 8.5q32 0 52 -8.5
t31 -16.5q19 -14 29.5 -31.5t15.5 -36.5t6 -39.5t1 -41.5v-97h-194v-33q0 -9 -0.5 -24.5t-0.5 -31.5t1 -31t4 -24q6 -20 21.5 -30t35.5 -10q10 0 19 2.5t17 10.5q15 14 18 36t4 60h75z" />
    <glyph glyph-name="germandbls" unicode="&#xdf;" horiz-adv-x="396" 
d="M350 249q0 -20 -0.5 -40.5t-1.5 -40.5q-1 -21 -2.5 -42.5t-8.5 -41.5t-17 -34t-21 -23.5t-22 -14.5t-19 -8q-13 -5 -23.5 -6t-24.5 -1q-11 0 -17.5 0.5t-23.5 3.5v68q13 -3 20 -4t14 -1q3 0 10 1t15 4t15.5 9t12.5 17q7 16 9.5 45.5t2.5 71.5q0 50 -3 101q-1 16 -2.5 37
t-12.5 36q-10 14 -26 19t-33 5q-5 0 -11 -0.5t-11 -0.5v71q14 0 35 1t33 14q9 10 11.5 28.5t2.5 31.5q0 11 -2 29t-7 29q-5 9 -17.5 19t-37.5 10q-5 0 -21.5 -2.5t-27.5 -17.5l-4.5 -7t-4.5 -12q-4 -13 -4 -34.5v-53.5v-515h-81v565q0 48 10 72.5t29 39.5q13 11 38.5 21.5
t64.5 10.5q7 0 24.5 -1.5t38 -8.5t40 -22t30.5 -43q5 -13 7.5 -30t2.5 -46q0 -32 -7.5 -52t-19 -31.5t-25.5 -17t-28 -9.5q11 -2 19.5 -4.5t19.5 -7.5q17 -8 27.5 -19t16.5 -23t8.5 -22.5t3.5 -16.5q2 -13 4 -41.5t2 -64.5z" />
    <glyph glyph-name="Ydieresis" unicode="&#x178;" horiz-adv-x="396" 
d="M241 286v-286h-91v286l-150 420h93l105 -353l105 353h93zM68 764v107h83v-107h-83zM246 764v107h83v-107h-83z" />
    <glyph glyph-name="trademark" unicode="&#x2122;" horiz-adv-x="557" 
d="M127 658v-284h-58v284h-64v48h188v-48h-66zM453 374l7 300l-64 -300h-61l-63 296l6 -296h-55v332h89l54 -264l54 264h91v-332h-58z" />
    <glyph glyph-name="ydieresis" unicode="&#xff;" horiz-adv-x="333" 
d="M234 64q-3 -14 -5.5 -27t-5.5 -27q-7 -36 -17.5 -75.5t-38.5 -67.5q-21 -20 -44 -25t-51 -5h-52v69q26 -1 53 0q7 1 16.5 2.5t18.5 7.5t15 17t6 31q0 16 -3 30.5t-7 30.5l-113 475h86l79 -402l64 402h85zM51 563v103h78v-103h-78zM206 563v103h77v-103h-77z" />
    <glyph glyph-name="udieresis" unicode="&#xfc;" 
d="M254 0l-1 46q-5 -7 -13.5 -16.5t-21 -18t-30 -14.5t-41.5 -6q-8 0 -26.5 3t-38.5 19q-15 12 -23 28t-11 36.5t-3.5 47t-0.5 61.5v314h80v-328v-21t1 -21q0 -2 0.5 -17.5t6.5 -28.5q10 -23 26.5 -28t25.5 -5q6 0 17 2t22 11q20 15 24.5 40t4.5 70v326h79v-500h-77zM73 563
v103h79v-103h-79zM229 563v103h77v-103h-77z" />
    <glyph glyph-name="ucircumflex" unicode="&#xfb;" 
d="M254 0l-1 46q-5 -7 -13.5 -16.5t-21 -18t-30 -14.5t-41.5 -6q-8 0 -26.5 3t-38.5 19q-15 12 -23 28t-11 36.5t-3.5 47t-0.5 61.5v314h80v-328v-21t1 -21q0 -2 0.5 -17.5t6.5 -28.5q10 -23 26.5 -28t25.5 -5q6 0 17 2t22 11q20 15 24.5 40t4.5 70v326h79v-500h-77z
M237 563l-53 63l-58 -63h-67l102 110h65l98 -110h-87z" />
    <glyph glyph-name="uacute" unicode="&#xfa;" 
d="M254 0l-1 46q-5 -7 -13.5 -16.5t-21 -18t-30 -14.5t-41.5 -6q-8 0 -26.5 3t-38.5 19q-15 12 -23 28t-11 36.5t-3.5 47t-0.5 61.5v314h80v-328v-21t1 -21q0 -2 0.5 -17.5t6.5 -28.5q10 -23 26.5 -28t25.5 -5q6 0 17 2t22 11q20 15 24.5 40t4.5 70v326h79v-500h-77z
M208 564h-64l52 107h110z" />
    <glyph glyph-name="ugrave" unicode="&#xf9;" 
d="M254 0l-1 46q-5 -7 -13.5 -16.5t-21 -18t-30 -14.5t-41.5 -6q-8 0 -26.5 3t-38.5 19q-15 12 -23 28t-11 36.5t-3.5 47t-0.5 61.5v314h80v-328v-21t1 -21q0 -2 0.5 -17.5t6.5 -28.5q10 -23 26.5 -28t25.5 -5q6 0 17 2t22 11q20 15 24.5 40t4.5 70v326h79v-500h-77z
M174 564l-98 107h109l53 -107h-64z" />
    <glyph glyph-name="divide" unicode="&#xf7;" horiz-adv-x="559" 
d="M239 99v102h83v-102h-83zM79 261v73h401v-73h-401zM239 393v102h82l1 -102h-83z" />
    <glyph glyph-name="odieresis" unicode="&#xf6;" horiz-adv-x="354" 
d="M235 246v55t-1 55q0 13 -1.5 29t-7 29t-16 21.5t-29.5 8.5q-16 0 -26 -5.5t-16 -13t-9 -15.5t-4 -13q-4 -16 -4.5 -48.5t-0.5 -75.5q0 -30 0.5 -60.5t0.5 -60.5q0 -22 1 -38t4 -25q11 -35 49 -35q26 0 38 14t17 38q3 17 4 54.5t1 85.5zM318 245v-48t-2 -48q-1 -23 -2 -34
t-3 -22q-3 -18 -10 -36t-22 -32.5t-40 -24t-64 -9.5q-35 0 -67 11.5t-51 43.5q-15 26 -18 56t-3 59v65v65.5t2 64.5q1 29 7 61.5t29 55.5q13 14 38.5 25t68.5 11q51 0 78.5 -18.5t40.5 -43.5t15.5 -51t2.5 -41q1 -55 0 -110zM61 563v103h78v-103h-78zM216 563v103h77v-103
h-77z" />
    <glyph glyph-name="otilde" unicode="&#xf5;" horiz-adv-x="354" 
d="M235 246v55t-1 55q0 13 -1.5 29t-7 29t-16 21.5t-29.5 8.5q-16 0 -26 -5.5t-16 -13t-9 -15.5t-4 -13q-4 -16 -4.5 -48.5t-0.5 -75.5q0 -30 0.5 -60.5t0.5 -60.5q0 -22 1 -38t4 -25q11 -35 49 -35q26 0 38 14t17 38q3 17 4 54.5t1 85.5zM318 245v-48t-2 -48q-1 -23 -2 -34
t-3 -22q-3 -18 -10 -36t-22 -32.5t-40 -24t-64 -9.5q-35 0 -67 11.5t-51 43.5q-15 26 -18 56t-3 59v65v65.5t2 64.5q1 29 7 61.5t29 55.5q13 14 38.5 25t68.5 11q51 0 78.5 -18.5t40.5 -43.5t15.5 -51t2.5 -41q1 -55 0 -110zM304 658q-1 -14 -2 -20t-3 -14q-2 -5 -6 -14
t-12.5 -18t-21 -16t-30.5 -7q-19 0 -41 9t-39 14q-23 8 -34 8q-10 0 -15 -4t-7.5 -9.5t-3.5 -10.5t-1 -7h-36q0 8 3.5 29.5t23.5 40.5q14 12 25 16q7 2 14 3t9 1q18 0 32.5 -5t43.5 -16q26 -10 39 -10q9 0 14.5 3.5t7.5 8.5t3 10t1 8h36z" />
    <glyph glyph-name="ocircumflex" unicode="&#xf4;" horiz-adv-x="354" 
d="M235 246v55t-1 55q0 13 -1.5 29t-7 29t-16 21.5t-29.5 8.5q-16 0 -26 -5.5t-16 -13t-9 -15.5t-4 -13q-4 -16 -4.5 -48.5t-0.5 -75.5q0 -30 0.5 -60.5t0.5 -60.5q0 -22 1 -38t4 -25q11 -35 49 -35q26 0 38 14t17 38q3 17 4 54.5t1 85.5zM318 245v-48t-2 -48q-1 -23 -2 -34
t-3 -22q-3 -18 -10 -36t-22 -32.5t-40 -24t-64 -9.5q-35 0 -67 11.5t-51 43.5q-15 26 -18 56t-3 59v65v65.5t2 64.5q1 29 7 61.5t29 55.5q13 14 38.5 25t68.5 11q51 0 78.5 -18.5t40.5 -43.5t15.5 -51t2.5 -41q1 -55 0 -110zM227 563l-54 63l-57 -63h-67l102 110h65l98 -110
h-87z" />
    <glyph glyph-name="oacute" unicode="&#xf3;" horiz-adv-x="354" 
d="M235 246v55t-1 55q0 13 -1.5 29t-7 29t-16 21.5t-29.5 8.5q-16 0 -26 -5.5t-16 -13t-9 -15.5t-4 -13q-4 -16 -4.5 -48.5t-0.5 -75.5q0 -30 0.5 -60.5t0.5 -60.5q0 -22 1 -38t4 -25q11 -35 49 -35q26 0 38 14t17 38q3 17 4 54.5t1 85.5zM318 245v-48t-2 -48q-1 -23 -2 -34
t-3 -22q-3 -18 -10 -36t-22 -32.5t-40 -24t-64 -9.5q-35 0 -67 11.5t-51 43.5q-15 26 -18 56t-3 59v65v65.5t2 64.5q1 29 7 61.5t29 55.5q13 14 38.5 25t68.5 11q51 0 78.5 -18.5t40.5 -43.5t15.5 -51t2.5 -41q1 -55 0 -110zM197 564h-64l53 107h109z" />
    <glyph glyph-name="ograve" unicode="&#xf2;" horiz-adv-x="354" 
d="M235 246v55t-1 55q0 13 -1.5 29t-7 29t-16 21.5t-29.5 8.5q-16 0 -26 -5.5t-16 -13t-9 -15.5t-4 -13q-4 -16 -4.5 -48.5t-0.5 -75.5q0 -30 0.5 -60.5t0.5 -60.5q0 -22 1 -38t4 -25q11 -35 49 -35q26 0 38 14t17 38q3 17 4 54.5t1 85.5zM318 245v-48t-2 -48q-1 -23 -2 -34
t-3 -22q-3 -18 -10 -36t-22 -32.5t-40 -24t-64 -9.5q-35 0 -67 11.5t-51 43.5q-15 26 -18 56t-3 59v65v65.5t2 64.5q1 29 7 61.5t29 55.5q13 14 38.5 25t68.5 11q51 0 78.5 -18.5t40.5 -43.5t15.5 -51t2.5 -41q1 -55 0 -110zM164 564l-98 107h109l53 -107h-64z" />
    <glyph glyph-name="ntilde" unicode="&#xf1;" 
d="M250 0v366q0 4 -0.5 17.5t-5.5 27t-17 24.5t-36 11q-15 0 -25.5 -4.5t-17.5 -11.5t-11 -14t-6 -12q-6 -15 -6.5 -32t-0.5 -49v-323h-80v500h76v-46q5 5 8.5 10t8.5 10q11 9 33 22t58 13q26 0 49 -10t37 -33q12 -20 14.5 -44.5t2.5 -69.5v-352h-81zM314 658q-1 -14 -2 -20
t-3 -14q-2 -5 -6 -14t-12.5 -18t-21 -16t-30.5 -7q-19 0 -41 8.5t-39 14.5q-12 4 -19 6t-15 2q-10 0 -15 -4t-7.5 -9.5t-3.5 -10.5t-1 -7h-36q0 4 0.5 12t3.5 17.5t8.5 20.5t15.5 20q12 12 24 16q8 2 15 3t9 1q17 0 31.5 -5t43.5 -16q26 -10 39 -10q10 0 15 3.5t7.5 8.5
t3 10t0.5 8h36z" />
    <glyph glyph-name="idieresis" unicode="&#xef;" horiz-adv-x="167" 
d="M44 0v500h79v-500h-79zM-33 563v103h79v-103h-79zM123 563v103h77v-103h-77z" />
    <glyph glyph-name="icircumflex" unicode="&#xee;" horiz-adv-x="167" 
d="M44 0v500h79v-500h-79zM133 563l-53 63l-58 -63h-67l102 110h65l98 -110h-87z" />
    <glyph glyph-name="iacute" unicode="&#xed;" horiz-adv-x="167" 
d="M44 0v500h79v-500h-79zM104 564h-65l53 107h109z" />
    <glyph glyph-name="igrave" unicode="&#xec;" horiz-adv-x="167" 
d="M44 0v500h79v-500h-79zM70 564l-98 107h109l53 -107h-64z" />
    <glyph glyph-name="edieresis" unicode="&#xeb;" horiz-adv-x="354" 
d="M243 320v29t-1 29q-2 29 -15.5 49t-46.5 20q-38 0 -53 -32q-8 -17 -9 -38t-1 -57v-21h126v21zM318 155q1 -32 -2.5 -62t-26.5 -57q-14 -17 -38.5 -31t-71.5 -14q-42 0 -73.5 14.5t-51.5 52.5q-7 14 -10.5 27.5t-5 29.5t-1.5 37v50q-1 23 -1 46.5v46.5q0 22 1 43t3 43
q5 43 15.5 64t27.5 35q13 11 27 16.5t26.5 8t22.5 3t16 0.5q27 0 50.5 -5t45.5 -22q5 -4 14 -12.5t16 -22.5q7 -15 11 -32.5t5 -35.5t1 -36v-33v-74h-201q-2 -44 0 -88q1 -18 2 -28.5t3 -18.5q4 -16 12 -24.5t16.5 -13t17 -5.5t14.5 -1t16 1t21 10q15 11 20 31.5t4 56.5h75z
M61 563v103h79v-103h-79zM216 563v103h78v-103h-78z" />
    <glyph glyph-name="ecircumflex" unicode="&#xea;" horiz-adv-x="354" 
d="M243 320v29t-1 29q-2 29 -15.5 49t-46.5 20q-38 0 -53 -32q-8 -17 -9 -38t-1 -57v-21h126v21zM318 155q1 -32 -2.5 -62t-26.5 -57q-14 -17 -38.5 -31t-71.5 -14q-42 0 -73.5 14.5t-51.5 52.5q-7 14 -10.5 27.5t-5 29.5t-1.5 37v50q-1 23 -1 46.5v46.5q0 22 1 43t3 43
q5 43 15.5 64t27.5 35q13 11 27 16.5t26.5 8t22.5 3t16 0.5q27 0 50.5 -5t45.5 -22q5 -4 14 -12.5t16 -22.5q7 -15 11 -32.5t5 -35.5t1 -36v-33v-74h-201q-2 -44 0 -88q1 -18 2 -28.5t3 -18.5q4 -16 12 -24.5t16.5 -13t17 -5.5t14.5 -1t16 1t21 10q15 11 20 31.5t4 56.5h75z
M227 563l-54 63l-57 -63h-67l102 110h65l98 -110h-87z" />
    <glyph glyph-name="eacute" unicode="&#xe9;" horiz-adv-x="354" 
d="M243 320v29t-1 29q-2 29 -15.5 49t-46.5 20q-38 0 -53 -32q-8 -17 -9 -38t-1 -57v-21h126v21zM318 155q1 -32 -2.5 -62t-26.5 -57q-14 -17 -38.5 -31t-71.5 -14q-42 0 -73.5 14.5t-51.5 52.5q-7 14 -10.5 27.5t-5 29.5t-1.5 37v50q-1 23 -1 46.5v46.5q0 22 1 43t3 43
q5 43 15.5 64t27.5 35q13 11 27 16.5t26.5 8t22.5 3t16 0.5q27 0 50.5 -5t45.5 -22q5 -4 14 -12.5t16 -22.5q7 -15 11 -32.5t5 -35.5t1 -36v-33v-74h-201q-2 -44 0 -88q1 -18 2 -28.5t3 -18.5q4 -16 12 -24.5t16.5 -13t17 -5.5t14.5 -1t16 1t21 10q15 11 20 31.5t4 56.5h75z
M197 564h-64l53 107h109z" />
    <glyph glyph-name="egrave" unicode="&#xe8;" horiz-adv-x="354" 
d="M243 320v29t-1 29q-2 29 -15.5 49t-46.5 20q-38 0 -53 -32q-8 -17 -9 -38t-1 -57v-21h126v21zM318 155q1 -32 -2.5 -62t-26.5 -57q-14 -17 -38.5 -31t-71.5 -14q-42 0 -73.5 14.5t-51.5 52.5q-7 14 -10.5 27.5t-5 29.5t-1.5 37v50q-1 23 -1 46.5v46.5q0 22 1 43t3 43
q5 43 15.5 64t27.5 35q13 11 27 16.5t26.5 8t22.5 3t16 0.5q27 0 50.5 -5t45.5 -22q5 -4 14 -12.5t16 -22.5q7 -15 11 -32.5t5 -35.5t1 -36v-33v-74h-201q-2 -44 0 -88q1 -18 2 -28.5t3 -18.5q4 -16 12 -24.5t16.5 -13t17 -5.5t14.5 -1t16 1t21 10q15 11 20 31.5t4 56.5h75z
M164 564l-98 107h109l53 -107h-64z" />
    <glyph glyph-name="ccedilla" unicode="&#xe7;" horiz-adv-x="354" 
d="M320 172q0 -81 -16 -113q-14 -26 -32 -40t-36 -20t-32 -7t-18 -1l-19 -59q16 7 27 8.5t18 1.5q27 0 47 -17t21 -47q0 -13 -6 -28.5t-19 -29t-33.5 -22.5t-48.5 -9q-29 -1 -47.5 6.5t-31.5 13.5l12 24q13 -6 28 -10t27 -4q16 0 26.5 5.5t17.5 13t10 16t3 14.5
q1 16 -10 27.5t-28 11.5q-11 0 -18.5 -4.5t-11.5 -8.5l-21 7l31 90q-46 6 -71 23t-37 46.5t-14 73t-2 101.5q0 66 2.5 117t16.5 86t43.5 53t83.5 18q49 0 77 -14.5t41.5 -38.5t16.5 -56t3 -66v-15h-76q0 29 -0.5 52.5t-6 41t-18 27t-36.5 9.5q-32 1 -44 -14.5t-17 -32.5
q-2 -7 -3 -26.5t-2 -42t-1 -42v-26.5v-15v-45t0.5 -43.5t1.5 -35t2 -19.5q0 -2 2 -12t10 -19q8 -11 18 -16.5t28 -5.5q22 0 35 8t20 24t9 38t2 50v12h76v-14z" />
    <glyph glyph-name="aring" unicode="&#xe5;" horiz-adv-x="354" 
d="M230 285l-14 -13.5l-14 -12.5q-6 -5 -12 -9l-13 -9l-32.5 -25t-19.5 -19q-8 -10 -16 -27t-8 -46q0 -3 0.5 -15t5.5 -25.5t16 -23.5t33 -10q23 0 36.5 11t18.5 18q14 18 16.5 39.5t2.5 43.5v123zM211 629q0 11 -4.5 18t-11 11t-12.5 5.5t-9 1.5q-8 0 -13 -2
q-23 -10 -23 -34q0 -16 10.5 -26t26.5 -10q14 0 25 10.5t11 25.5zM235 0v60q-4 -9 -11 -20.5t-19 -22.5t-30 -18.5t-44 -7.5q-8 0 -24.5 2.5t-35.5 13.5q-32 20 -42 49.5t-10 64.5q0 32 8.5 57.5t31.5 48.5q17 18 38.5 31t59.5 40q29 20 45 34.5l28 25.5v17q0 7 -1 18.5
t-6.5 23t-18 20t-35.5 8.5q-24 0 -36.5 -8.5t-17.5 -19.5t-5.5 -23.5t-0.5 -19.5q0 -10 0.5 -19t1.5 -19h-73v21.5t1 21.5q1 26 4 46.5t21 41.5q23 26 52 34t61 8q29 0 54.5 -7t46.5 -29q12 -13 17.5 -24.5t7.5 -17.5q5 -15 5.5 -34t0.5 -51v-240q0 -32 1.5 -54.5t7.5 -34.5
q4 -7 8.5 -11t6.5 -6h-98zM255 628q0 -33 -24 -56.5t-57 -23.5q-34 0 -57 24t-23 57t23.5 56.5t57.5 23.5q33 0 57 -23.5t23 -57.5z" />
    <glyph glyph-name="adieresis" unicode="&#xe4;" horiz-adv-x="354" 
d="M230 285l-14 -13.5l-14 -12.5q-6 -5 -12 -9l-13 -9l-32.5 -25t-19.5 -19q-8 -10 -16 -27t-8 -46q0 -3 0.5 -15t5.5 -25.5t16 -23.5t33 -10q23 0 36.5 11t18.5 18q14 18 16.5 39.5t2.5 43.5v123zM235 0v60q-4 -9 -11 -20.5t-19 -22.5t-30 -18.5t-44 -7.5q-8 0 -24.5 2.5
t-35.5 13.5q-32 20 -42 49.5t-10 64.5q0 32 8.5 57.5t31.5 48.5q17 18 38.5 31t59.5 40q29 20 45 34.5l28 25.5v17q0 7 -1 18.5t-6.5 23t-18 20t-35.5 8.5q-24 0 -36.5 -8.5t-17.5 -19.5t-5.5 -23.5t-0.5 -19.5q0 -10 0.5 -19t1.5 -19h-73v21.5t1 21.5q1 26 4 46.5t21 41.5
q23 26 52 34t61 8q29 0 54.5 -7t46.5 -29q12 -13 17.5 -24.5t7.5 -17.5q5 -15 5.5 -34t0.5 -51v-240q0 -32 1.5 -54.5t7.5 -34.5q4 -7 8.5 -11t6.5 -6h-98zM57 563v103h79v-103h-79zM213 563v103h77v-103h-77z" />
    <glyph glyph-name="atilde" unicode="&#xe3;" horiz-adv-x="354" 
d="M230 285l-14 -13.5l-14 -12.5q-6 -5 -12 -9l-13 -9l-32.5 -25t-19.5 -19q-8 -10 -16 -27t-8 -46q0 -3 0.5 -15t5.5 -25.5t16 -23.5t33 -10q23 0 36.5 11t18.5 18q14 18 16.5 39.5t2.5 43.5v123zM235 0v60q-4 -9 -11 -20.5t-19 -22.5t-30 -18.5t-44 -7.5q-8 0 -24.5 2.5
t-35.5 13.5q-32 20 -42 49.5t-10 64.5q0 32 8.5 57.5t31.5 48.5q17 18 38.5 31t59.5 40q29 20 45 34.5l28 25.5v17q0 7 -1 18.5t-6.5 23t-18 20t-35.5 8.5q-24 0 -36.5 -8.5t-17.5 -19.5t-5.5 -23.5t-0.5 -19.5q0 -10 0.5 -19t1.5 -19h-73v21.5t1 21.5q1 26 4 46.5t21 41.5
q23 26 52 34t61 8q29 0 54.5 -7t46.5 -29q12 -13 17.5 -24.5t7.5 -17.5q5 -15 5.5 -34t0.5 -51v-240q0 -32 1.5 -54.5t7.5 -34.5q4 -7 8.5 -11t6.5 -6h-98zM304 658q-1 -14 -2 -20t-3 -14q-2 -5 -6 -14t-12.5 -18t-21 -16t-30.5 -7q-19 0 -41 9t-39 14q-23 8 -34 8
q-10 0 -15 -4t-7.5 -9.5t-3.5 -10.5t-1 -7h-36q0 8 3.5 29.5t23.5 40.5q14 12 25 16q7 2 14 3t9 1q18 0 32.5 -5t43.5 -16q26 -10 39 -10q9 0 14.5 3.5t7.5 8.5t3 10t1 8h36z" />
    <glyph glyph-name="acircumflex" unicode="&#xe2;" horiz-adv-x="354" 
d="M230 285l-14 -13.5l-14 -12.5q-6 -5 -12 -9l-13 -9l-32.5 -25t-19.5 -19q-8 -10 -16 -27t-8 -46q0 -3 0.5 -15t5.5 -25.5t16 -23.5t33 -10q23 0 36.5 11t18.5 18q14 18 16.5 39.5t2.5 43.5v123zM235 0v60q-4 -9 -11 -20.5t-19 -22.5t-30 -18.5t-44 -7.5q-8 0 -24.5 2.5
t-35.5 13.5q-32 20 -42 49.5t-10 64.5q0 32 8.5 57.5t31.5 48.5q17 18 38.5 31t59.5 40q29 20 45 34.5l28 25.5v17q0 7 -1 18.5t-6.5 23t-18 20t-35.5 8.5q-24 0 -36.5 -8.5t-17.5 -19.5t-5.5 -23.5t-0.5 -19.5q0 -10 0.5 -19t1.5 -19h-73v21.5t1 21.5q1 26 4 46.5t21 41.5
q23 26 52 34t61 8q29 0 54.5 -7t46.5 -29q12 -13 17.5 -24.5t7.5 -17.5q5 -15 5.5 -34t0.5 -51v-240q0 -32 1.5 -54.5t7.5 -34.5q4 -7 8.5 -11t6.5 -6h-98zM227 563l-54 63l-57 -63h-67l102 110h65l98 -110h-87z" />
    <glyph glyph-name="aacute" unicode="&#xe1;" horiz-adv-x="354" 
d="M230 285l-14 -13.5l-14 -12.5q-6 -5 -12 -9l-13 -9l-32.5 -25t-19.5 -19q-8 -10 -16 -27t-8 -46q0 -3 0.5 -15t5.5 -25.5t16 -23.5t33 -10q23 0 36.5 11t18.5 18q14 18 16.5 39.5t2.5 43.5v123zM235 0v60q-4 -9 -11 -20.5t-19 -22.5t-30 -18.5t-44 -7.5q-8 0 -24.5 2.5
t-35.5 13.5q-32 20 -42 49.5t-10 64.5q0 32 8.5 57.5t31.5 48.5q17 18 38.5 31t59.5 40q29 20 45 34.5l28 25.5v17q0 7 -1 18.5t-6.5 23t-18 20t-35.5 8.5q-24 0 -36.5 -8.5t-17.5 -19.5t-5.5 -23.5t-0.5 -19.5q0 -10 0.5 -19t1.5 -19h-73v21.5t1 21.5q1 26 4 46.5t21 41.5
q23 26 52 34t61 8q29 0 54.5 -7t46.5 -29q12 -13 17.5 -24.5t7.5 -17.5q5 -15 5.5 -34t0.5 -51v-240q0 -32 1.5 -54.5t7.5 -34.5q4 -7 8.5 -11t6.5 -6h-98zM197 564h-64l53 107h109z" />
    <glyph glyph-name="agrave" unicode="&#xe0;" horiz-adv-x="354" 
d="M230 285l-14 -13.5l-14 -12.5q-6 -5 -12 -9l-13 -9l-32.5 -25t-19.5 -19q-8 -10 -16 -27t-8 -46q0 -3 0.5 -15t5.5 -25.5t16 -23.5t33 -10q23 0 36.5 11t18.5 18q14 18 16.5 39.5t2.5 43.5v123zM235 0v60q-4 -9 -11 -20.5t-19 -22.5t-30 -18.5t-44 -7.5q-8 0 -24.5 2.5
t-35.5 13.5q-32 20 -42 49.5t-10 64.5q0 32 8.5 57.5t31.5 48.5q17 18 38.5 31t59.5 40q29 20 45 34.5l28 25.5v17q0 7 -1 18.5t-6.5 23t-18 20t-35.5 8.5q-24 0 -36.5 -8.5t-17.5 -19.5t-5.5 -23.5t-0.5 -19.5q0 -10 0.5 -19t1.5 -19h-73v21.5t1 21.5q1 26 4 46.5t21 41.5
q23 26 52 34t61 8q29 0 54.5 -7t46.5 -29q12 -13 17.5 -24.5t7.5 -17.5q5 -15 5.5 -34t0.5 -51v-240q0 -32 1.5 -54.5t7.5 -34.5q4 -7 8.5 -11t6.5 -6h-98zM164 564l-98 107h109l53 -107h-64z" />
    <glyph glyph-name="Udieresis" unicode="&#xdc;" horiz-adv-x="437" 
d="M390 179q0 -25 -2 -49t-9 -46t-21 -40.5t-39 -31.5q-16 -9 -31.5 -13.5t-29.5 -6.5t-24.5 -2h-16.5q-32 0 -68 8.5t-61 32.5q-5 5 -13.5 17t-15.5 31q-5 14 -7.5 30t-3.5 29.5t-1 24v13.5v530h89v-468v-77t8 -51q8 -20 21.5 -28.5t20.5 -10.5t14 -3.5t21 -1.5
q20 0 35.5 4.5t28.5 21.5l6 9t6 16q2 11 3 34.5t1 52.5v502h89v-527zM89 764v107h83v-107h-83zM267 764v107h83v-107h-83z" />
    <glyph glyph-name="Ucircumflex" unicode="&#xdb;" horiz-adv-x="437" 
d="M390 179q0 -25 -2 -49t-9 -46t-21 -40.5t-39 -31.5q-16 -9 -31.5 -13.5t-29.5 -6.5t-24.5 -2h-16.5q-32 0 -68 8.5t-61 32.5q-5 5 -13.5 17t-15.5 31q-5 14 -7.5 30t-3.5 29.5t-1 24v13.5v530h89v-468v-77t8 -51q8 -20 21.5 -28.5t20.5 -10.5t14 -3.5t21 -1.5
q20 0 35.5 4.5t28.5 21.5l6 9t6 16q2 11 3 34.5t1 52.5v502h89v-527zM263 764l-53 60l-58 -60h-67l102 107h65l98 -107h-87z" />
    <glyph glyph-name="Uacute" unicode="&#xda;" horiz-adv-x="437" 
d="M390 179q0 -25 -2 -49t-9 -46t-21 -40.5t-39 -31.5q-16 -9 -31.5 -13.5t-29.5 -6.5t-24.5 -2h-16.5q-32 0 -68 8.5t-61 32.5q-5 5 -13.5 17t-15.5 31q-5 14 -7.5 30t-3.5 29.5t-1 24v13.5v530h89v-468v-77t8 -51q8 -20 21.5 -28.5t20.5 -10.5t14 -3.5t21 -1.5
q20 0 35.5 4.5t28.5 21.5l6 9t6 16q2 11 3 34.5t1 52.5v502h89v-527zM239 764h-64l53 107h109z" />
    <glyph glyph-name="Ugrave" unicode="&#xd9;" horiz-adv-x="437" 
d="M390 179q0 -25 -2 -49t-9 -46t-21 -40.5t-39 -31.5q-16 -9 -31.5 -13.5t-29.5 -6.5t-24.5 -2h-16.5q-32 0 -68 8.5t-61 32.5q-5 5 -13.5 17t-15.5 31q-5 14 -7.5 30t-3.5 29.5t-1 24v13.5v530h89v-468v-77t8 -51q8 -20 21.5 -28.5t20.5 -10.5t14 -3.5t21 -1.5
q20 0 35.5 4.5t28.5 21.5l6 9t6 16q2 11 3 34.5t1 52.5v502h89v-527zM199 764l-97 107h109l52 -107h-64z" />
    <glyph glyph-name="Odieresis" unicode="&#xd6;" horiz-adv-x="437" 
d="M304 363v73.5t-1 73.5q0 21 -1.5 49.5t-12.5 48.5q-6 11 -22.5 23t-45.5 12q-8 0 -22.5 -2.5t-29.5 -14.5q-26 -20 -30.5 -57t-4.5 -99v-49v-102t1 -102q0 -38 1 -62t6 -41q3 -8 7.5 -17t13.5 -17t22 -13t33 -5q22 0 41 10t28 31q11 23 13 65t3 101q1 23 1 46.5v47.5z
M394 363q0 -32 -1.5 -62.5t-2.5 -62.5q0 -16 -0.5 -31.5t-1.5 -31.5q-2 -19 -4.5 -39.5t-8 -40t-15.5 -37.5t-25 -31q-17 -15 -45.5 -26t-76.5 -11q-8 0 -24 0.5t-36 5.5t-40.5 16.5t-36.5 34.5q-5 6 -10.5 17t-10.5 28q-8 29 -9.5 87.5t-1.5 135.5q0 48 0.5 95.5t1.5 95.5
q2 61 10.5 95t27.5 58q16 21 49.5 39.5t93.5 18.5q8 0 26.5 -1.5t40 -9t43 -23t35.5 -44.5q14 -28 17 -63q2 -19 3.5 -47.5t2 -59.5t0 -59.5t-0.5 -46.5zM89 764v107h83v-107h-83zM267 764v107h83v-107h-83z" />
    <glyph glyph-name="Otilde" unicode="&#xd5;" horiz-adv-x="437" 
d="M304 363v73.5t-1 73.5q0 21 -1.5 49.5t-12.5 48.5q-6 11 -22.5 23t-45.5 12q-8 0 -22.5 -2.5t-29.5 -14.5q-26 -20 -30.5 -57t-4.5 -99v-49v-102t1 -102q0 -38 1 -62t6 -41q3 -8 7.5 -17t13.5 -17t22 -13t33 -5q22 0 41 10t28 31q11 23 13 65t3 101q1 23 1 46.5v47.5z
M394 363q0 -32 -1.5 -62.5t-2.5 -62.5q0 -16 -0.5 -31.5t-1.5 -31.5q-2 -19 -4.5 -39.5t-8 -40t-15.5 -37.5t-25 -31q-17 -15 -45.5 -26t-76.5 -11q-8 0 -24 0.5t-36 5.5t-40.5 16.5t-36.5 34.5q-5 6 -10.5 17t-10.5 28q-8 29 -9.5 87.5t-1.5 135.5q0 48 0.5 95.5t1.5 95.5
q2 61 10.5 95t27.5 58q16 21 49.5 39.5t93.5 18.5q8 0 26.5 -1.5t40 -9t43 -23t35.5 -44.5q14 -28 17 -63q2 -19 3.5 -47.5t2 -59.5t0 -59.5t-0.5 -46.5zM346 858q-2 -14 -3 -20t-3 -14q-8 -24 -25.5 -39.5t-43.5 -15.5q-20 0 -41 8l-39 15q-1 0 -12.5 4t-21.5 4
q-17 0 -21.5 -9t-6.5 -22h-36q0 4 1 12t3.5 18t8 20.5t15.5 19.5q11 11 25 16q7 3 14 3.5t9 0.5q17 0 32 -4.5t44 -16.5q14 -5 22 -7.5t16 -2.5q10 0 15 3.5t7.5 8.5t3.5 10t1 8h36z" />
    <glyph glyph-name="Ocircumflex" unicode="&#xd4;" horiz-adv-x="437" 
d="M304 363v73.5t-1 73.5q0 21 -1.5 49.5t-12.5 48.5q-6 11 -22.5 23t-45.5 12q-8 0 -22.5 -2.5t-29.5 -14.5q-26 -20 -30.5 -57t-4.5 -99v-49v-102t1 -102q0 -38 1 -62t6 -41q3 -8 7.5 -17t13.5 -17t22 -13t33 -5q22 0 41 10t28 31q11 23 13 65t3 101q1 23 1 46.5v47.5z
M394 363q0 -32 -1.5 -62.5t-2.5 -62.5q0 -16 -0.5 -31.5t-1.5 -31.5q-2 -19 -4.5 -39.5t-8 -40t-15.5 -37.5t-25 -31q-17 -15 -45.5 -26t-76.5 -11q-8 0 -24 0.5t-36 5.5t-40.5 16.5t-36.5 34.5q-5 6 -10.5 17t-10.5 28q-8 29 -9.5 87.5t-1.5 135.5q0 48 0.5 95.5t1.5 95.5
q2 61 10.5 95t27.5 58q16 21 49.5 39.5t93.5 18.5q8 0 26.5 -1.5t40 -9t43 -23t35.5 -44.5q14 -28 17 -63q2 -19 3.5 -47.5t2 -59.5t0 -59.5t-0.5 -46.5zM263 764l-53 60l-58 -60h-67l102 107h65l98 -107h-87z" />
    <glyph glyph-name="Oacute" unicode="&#xd3;" horiz-adv-x="437" 
d="M304 363v73.5t-1 73.5q0 21 -1.5 49.5t-12.5 48.5q-6 11 -22.5 23t-45.5 12q-8 0 -22.5 -2.5t-29.5 -14.5q-26 -20 -30.5 -57t-4.5 -99v-49v-102t1 -102q0 -38 1 -62t6 -41q3 -8 7.5 -17t13.5 -17t22 -13t33 -5q22 0 41 10t28 31q11 23 13 65t3 101q1 23 1 46.5v47.5z
M394 363q0 -32 -1.5 -62.5t-2.5 -62.5q0 -16 -0.5 -31.5t-1.5 -31.5q-2 -19 -4.5 -39.5t-8 -40t-15.5 -37.5t-25 -31q-17 -15 -45.5 -26t-76.5 -11q-8 0 -24 0.5t-36 5.5t-40.5 16.5t-36.5 34.5q-5 6 -10.5 17t-10.5 28q-8 29 -9.5 87.5t-1.5 135.5q0 48 0.5 95.5t1.5 95.5
q2 61 10.5 95t27.5 58q16 21 49.5 39.5t93.5 18.5q8 0 26.5 -1.5t40 -9t43 -23t35.5 -44.5q14 -28 17 -63q2 -19 3.5 -47.5t2 -59.5t0 -59.5t-0.5 -46.5zM239 764h-64l53 107h109z" />
    <glyph glyph-name="Ograve" unicode="&#xd2;" horiz-adv-x="437" 
d="M304 363v73.5t-1 73.5q0 21 -1.5 49.5t-12.5 48.5q-6 11 -22.5 23t-45.5 12q-8 0 -22.5 -2.5t-29.5 -14.5q-26 -20 -30.5 -57t-4.5 -99v-49v-102t1 -102q0 -38 1 -62t6 -41q3 -8 7.5 -17t13.5 -17t22 -13t33 -5q22 0 41 10t28 31q11 23 13 65t3 101q1 23 1 46.5v47.5z
M394 363q0 -32 -1.5 -62.5t-2.5 -62.5q0 -16 -0.5 -31.5t-1.5 -31.5q-2 -19 -4.5 -39.5t-8 -40t-15.5 -37.5t-25 -31q-17 -15 -45.5 -26t-76.5 -11q-8 0 -24 0.5t-36 5.5t-40.5 16.5t-36.5 34.5q-5 6 -10.5 17t-10.5 28q-8 29 -9.5 87.5t-1.5 135.5q0 48 0.5 95.5t1.5 95.5
q2 61 10.5 95t27.5 58q16 21 49.5 39.5t93.5 18.5q8 0 26.5 -1.5t40 -9t43 -23t35.5 -44.5q14 -28 17 -63q2 -19 3.5 -47.5t2 -59.5t0 -59.5t-0.5 -46.5zM199 764l-97 107h109l52 -107h-64z" />
    <glyph glyph-name="Ntilde" unicode="&#xd1;" horiz-adv-x="437" 
d="M263 0l-138 612l12 -612h-87v706h121l143 -618l-12 618h85v-706h-124zM346 858q-2 -14 -3 -20t-3 -14q-8 -24 -25.5 -39.5t-43.5 -15.5q-20 0 -41 8l-39 15q-1 0 -12.5 4t-21.5 4q-17 0 -21.5 -9t-6.5 -22h-36q0 4 1 12t3.5 18t8 20.5t15.5 19.5q11 11 25 16q7 3 14 3.5
t9 0.5q17 0 32 -4.5t44 -16.5q14 -5 22 -7.5t16 -2.5q10 0 15 3.5t7.5 8.5t3.5 10t1 8h36z" />
    <glyph glyph-name="Idieresis" unicode="&#xcf;" horiz-adv-x="187" 
d="M50 0v706h87v-706h-87zM-36 764v107h83v-107h-83zM142 764v107h83v-107h-83z" />
    <glyph glyph-name="Icircumflex" unicode="&#xce;" horiz-adv-x="187" 
d="M50 0v706h87v-706h-87zM138 764l-53 60l-58 -60h-67l102 107h65l98 -107h-87z" />
    <glyph glyph-name="Iacute" unicode="&#xcd;" horiz-adv-x="187" 
d="M50 0v706h87v-706h-87zM114 764h-64l53 107h109z" />
    <glyph glyph-name="Igrave" unicode="&#xcc;" horiz-adv-x="187" 
d="M50 0v706h87v-706h-87zM74 764l-97 107h109l53 -107h-65z" />
    <glyph glyph-name="Edieresis" unicode="&#xcb;" horiz-adv-x="396" 
d="M50 0v706h311v-79h-223v-210h195v-80h-195v-258h230v-79h-318zM68 764v107h83v-107h-83zM246 764v107h83v-107h-83z" />
    <glyph glyph-name="Ecircumflex" unicode="&#xca;" horiz-adv-x="396" 
d="M50 0v706h311v-79h-223v-210h195v-80h-195v-258h230v-79h-318zM242 764l-53 60l-58 -60h-66l101 107h65l98 -107h-87z" />
    <glyph glyph-name="Eacute" unicode="&#xc9;" horiz-adv-x="396" 
d="M50 0v706h311v-79h-223v-210h195v-80h-195v-258h230v-79h-318zM218 764h-64l53 107h109z" />
    <glyph glyph-name="Egrave" unicode="&#xc8;" horiz-adv-x="396" 
d="M50 0v706h311v-79h-223v-210h195v-80h-195v-258h230v-79h-318zM178 764l-97 107h109l53 -107h-65z" />
    <glyph glyph-name="Ccedilla" unicode="&#xc7;" horiz-adv-x="417" 
d="M380 225q0 -32 -0.5 -57t-2.5 -45t-7 -37t-14 -32q-11 -20 -25.5 -30.5t-36.5 -19.5q-23 -9 -42 -11.5l-27 -3.5h-8q-3 0 -4 1l-20 -58q17 7 27.5 8.5t17.5 1.5q27 0 47.5 -17t20.5 -47q0 -13 -6 -28.5t-19 -29t-33 -22.5t-48 -9q-29 -1 -48 6.5t-32 13.5l13 24
q12 -6 27 -10t27 -4q16 0 27 5.5t18 13t10 16t3 14.5q0 16 -11 27.5t-28 11.5q-11 0 -18.5 -4.5t-11.5 -8.5l-20 7l29 89q-6 1 -21.5 4t-34.5 13t-38 28t-31 49q-6 16 -9.5 43.5t-5 63.5t-1.5 78v88q0 94 2 160.5t16 104.5q4 10 13 27.5t34 35.5q16 11 44 21.5t68 10.5
q35 0 58 -8.5t38 -18.5q18 -13 29.5 -28t18 -34.5t9 -44t2.5 -55.5v-22t-1 -22h-81v26q0 46 -3 75t-28 47q-6 5 -16.5 8t-25.5 3q-23 0 -37 -6.5t-23 -16.5t-13.5 -21t-7.5 -21q-3 -12 -5 -35t-2.5 -53t-1 -66t-0.5 -73q0 -33 0.5 -68.5t1.5 -66t2 -53t2 -29.5q0 -1 2.5 -14
t10.5 -24q9 -13 20.5 -19.5t21.5 -9.5t17.5 -3h9.5q15 0 26.5 4t17.5 8q24 17 28.5 44.5t5.5 57.5q1 12 1 22v22v26h82v-23z" />
    <glyph glyph-name="Aring" unicode="&#xc5;" horiz-adv-x="396" 
d="M195 575l-65 -363h134zM235 829q0 15 -10.5 25.5t-26.5 10.5q-14 0 -25.5 -10.5t-10.5 -26.5q0 -14 11 -25t26 -11t25.5 10.5t10.5 26.5zM304 0l-25 136h-164l-24 -136h-91l152 706h88l156 -706h-92zM279 828q0 -33 -23.5 -56.5t-57.5 -23.5q-33 0 -56.5 23.5t-23.5 56.5
q0 34 24 57t57 23t56.5 -23.5t23.5 -56.5z" />
    <glyph glyph-name="Adieresis" unicode="&#xc4;" horiz-adv-x="396" 
d="M195 575l-65 -363h134zM304 0l-25 136h-164l-24 -136h-91l152 706h88l156 -706h-92zM68 764v107h83v-107h-83zM246 764v107h83v-107h-83z" />
    <glyph glyph-name="Atilde" unicode="&#xc3;" horiz-adv-x="396" 
d="M195 575l-65 -363h134zM304 0l-25 136h-164l-24 -136h-91l152 706h88l156 -706h-92zM325 858q-1 -14 -2.5 -20l-3.5 -14q-8 -24 -25.5 -39.5t-43.5 -15.5q-20 0 -41 8l-38 15q-1 0 -13 4t-22 4q-16 0 -21 -9t-7 -22h-35q0 4 0.5 12t3 18t8 20.5t15.5 19.5q11 11 25 16
q7 3 14 3.5t9 0.5q18 0 32.5 -4.5t43.5 -16.5q26 -10 38 -10q10 0 15 3.5t7.5 8.5t3.5 10t1 8h36z" />
    <glyph glyph-name="Acircumflex" unicode="&#xc2;" horiz-adv-x="396" 
d="M195 575l-65 -363h134zM304 0l-25 136h-164l-24 -136h-91l152 706h88l156 -706h-92zM247 764l-53 60l-57 -60h-67l101 107h65l99 -107h-88z" />
    <glyph glyph-name="Aacute" unicode="&#xc1;" horiz-adv-x="396" 
d="M195 575l-65 -363h134zM304 0l-25 136h-164l-24 -136h-91l152 706h88l156 -706h-92zM218 764h-64l53 107h109z" />
    <glyph glyph-name="Agrave" unicode="&#xc0;" horiz-adv-x="396" 
d="M195 575l-65 -363h134zM304 0l-25 136h-164l-24 -136h-91l152 706h88l156 -706h-92zM178 764l-97 107h109l53 -107h-65z" />
    <glyph glyph-name="mu" unicode="&#xb5;" 
d="M254 0v47q-22 -33 -37 -44.5t-38 -11.5q-17 0 -29 6t-26 20v-176h-80v659h80v-346q0 -31 1.5 -46t6.5 -26q13 -31 53 -31q35 0 51 27t16 87v335h79v-419q0 -17 1 -29.5t4 -21.5t7.5 -16t11.5 -14h-101z" />
    <glyph glyph-name="plusminus" unicode="&#xb1;" horiz-adv-x="559" 
d="M84 0v73h392v-73h-392zM321 296v-169h-82v169h-155v73h155v170h82v-170h155v-73h-155z" />
    <glyph glyph-name="degree" unicode="&#xb0;" horiz-adv-x="354" 
d="M256 596q0 33 -23 56t-56 23t-56 -23t-23 -56q0 -32 23.5 -55.5t55.5 -23.5q33 0 56 23t23 56zM338 594q0 -33 -12.5 -62.5t-34.5 -51.5t-51 -35t-63 -13t-63.5 13t-51 35t-34 51.5t-12.5 62.5t12.5 62.5t34.5 51.5t51.5 34.5t62.5 12.5q34 0 63.5 -12.5t51 -34.5t34 -51
t12.5 -63z" />
    <glyph glyph-name="registered" unicode="&#xae;" horiz-adv-x="832" 
d="M482 446q0 45 -16 59q-8 8 -23 9.5t-51 1.5h-20v-145h23q27 0 43.5 3t26.5 11.5t13.5 23t3.5 37.5zM493 125l-88 189h-33v-189h-72v449h95q53 0 77 -4t41 -14q23 -14 32 -39t9 -71q0 -59 -16.5 -86.5t-59.5 -40.5l95 -194h-80zM736 352q0 68 -25 127t-68 102.5
t-101.5 68.5t-125.5 25q-66 0 -124.5 -25.5t-102 -69t-68.5 -102.5t-25 -126t25 -125.5t68 -102t101.5 -68.5t124.5 -25q67 0 125.5 25t102 68.5t68.5 102t25 125.5zM772 354q0 -75 -27.5 -140.5t-75.5 -113.5t-113.5 -75.5t-140.5 -27.5q-74 0 -138.5 28t-112.5 76t-76 113
t-28 139t28 139t76 113t113 76t139 28q75 0 140 -27.5t113 -75.5t75.5 -113t27.5 -139z" />
    <glyph glyph-name="logicalnot" unicode="&#xac;" horiz-adv-x="559" 
d="M390 75v185h-329v73h414v-258h-85z" />
    <glyph glyph-name="copyright" unicode="&#xa9;" horiz-adv-x="832" 
d="M561 258q0 -35 -2 -54t-10 -35q-12 -26 -42.5 -40.5t-74.5 -14.5q-67 0 -103 32q-21 18 -29.5 45t-8.5 73v173q0 58 14 87q14 31 46.5 47t80.5 16q59 0 93 -26q10 -8 17 -18t11.5 -23.5t6 -32t1.5 -43.5v-33h-72v31q0 24 -1 34t-5 21q-10 31 -54 31q-36 0 -49.5 -22
t-13.5 -80v-151q0 -58 13.5 -80t49.5 -22q30 0 43 13q8 6 11 18q4 12 5 22t1 33v28h72v-29zM736 352q0 68 -25 127t-68 102.5t-101.5 68.5t-125.5 25q-66 0 -124.5 -25.5t-102 -69t-68.5 -102.5t-25 -126t25 -125.5t68 -102t101.5 -68.5t124.5 -25q67 0 125.5 25t102 68.5
t68.5 102t25 125.5zM772 354q0 -75 -27.5 -140.5t-75.5 -113.5t-113.5 -75.5t-140.5 -27.5q-74 0 -138.5 28t-112.5 76t-76 113t-28 139t28 139t76 113t113 76t139 28q75 0 140 -27.5t113 -75.5t75.5 -113t27.5 -139z" />
    <glyph glyph-name="quotedbl" unicode="&#x22;" horiz-adv-x="272" 
d="M83 452h-29l-25 289h77zM219 452h-28l-26 289h78z" />
    <glyph glyph-name="exclam" unicode="!" horiz-adv-x="208" 
d="M82 0v118h86v-118h-86zM146 192h-44l-20 292v222h86v-222z" />
    <glyph glyph-name="scaron" unicode="&#x161;" horiz-adv-x="313" 
d="M295 122q-1 -19 -7 -42t-21.5 -42.5t-43.5 -33t-73 -13.5q-31 0 -52 6.5t-35 17.5q-18 14 -27 32t-13 38t-4.5 42.5t-1.5 45.5h77v-8q0 -36 3 -59t20 -37q11 -10 23 -11.5t15 -1.5q27 -1 43 17t16 44q0 15 -3 25.5t-9 20t-16 19.5t-24 22l-62 54q-18 16 -31.5 30
t-21.5 28t-12 29.5t-4 35.5q0 45 14.5 70.5t35.5 38.5t43.5 16t37.5 3q23 0 40.5 -5t26.5 -10q36 -20 45 -52.5t9 -88.5h-71v15q0 11 -1 24.5t-5.5 25t-15 19.5t-29.5 8q-7 0 -16.5 -1.5t-18 -7.5t-14.5 -17t-6 -29q0 -28 19 -47t43 -39l57 -47q13 -11 26 -23.5t23 -28.5
t16 -36t5 -47zM188 564h-65l-98 109h87l54 -63l57 63h67z" />
    <glyph glyph-name="Scaron" unicode="&#x160;" horiz-adv-x="396" 
d="M371 159q0 -57 -20 -90.5t-47 -51t-56 -22.5t-48 -5q-25 0 -51 5t-49 17.5t-40.5 34.5t-25.5 55q-4 14 -5.5 32t-1.5 32v78h83v-56v-17.5t1 -17.5q1 -9 4 -24.5t12 -29.5t26 -24t47 -10q11 0 26 3.5t28.5 13.5t23 28t8.5 47q-1 19 -5 34t-12 28.5t-20 27.5t-29 31l-95 98
q-18 18 -33 35.5t-25.5 38t-16.5 46.5t-6 62q0 22 5 50t22.5 52t50 40.5t86.5 16.5t84 -17t44.5 -41.5t17.5 -51t3 -45.5v-64h-78l-1 37q-1 38 -5.5 60.5t-27.5 36.5q-6 4 -17 7.5t-27 2.5q-27 -1 -41.5 -11.5t-21.5 -24.5t-8 -27.5t-1 -20.5q0 -12 2 -24t9.5 -26.5
t21.5 -33t37 -43.5l81 -85q18 -18 31.5 -33t23.5 -29.5t17 -30t12 -35.5q2 -9 4.5 -23.5t2.5 -35.5zM229 764h-65l-98 107h87l54 -63l57 63h67z" />
    <glyph glyph-name="thorn" unicode="&#xfe;" 
d="M256 261q0 22 -0.5 43t-0.5 43q0 12 -1.5 28.5t-7 32t-17 26.5t-32.5 11q-29 1 -43.5 -17t-20.5 -42.5t-6 -50v-38.5v-35q0 -12 -0.5 -35t0.5 -48.5t3 -48.5t7 -35q4 -10 16.5 -26.5t40.5 -17.5q25 -1 37 12.5t17 32t5.5 38t0.5 31.5q1 26 1 47.5t1 48.5zM339 290
q0 -39 -0.5 -76.5t-2.5 -69t-6 -56t-11 -37.5q-11 -21 -25 -33t-28 -18t-25.5 -7.5t-15.5 -1.5q-21 -1 -36.5 4t-27.5 12.5t-20.5 16.5t-14.5 18v-201h-82v865h79v-254q7 10 16 20t21 18t28 13.5t37 5.5q27 0 44.5 -8.5t28.5 -18.5q15 -14 23.5 -32.5t12.5 -42.5t4.5 -53
t0.5 -64z" />
    <glyph glyph-name="yacute" unicode="&#xfd;" horiz-adv-x="333" 
d="M234 64q-8 -39 -13.5 -71.5t-13.5 -58.5t-21.5 -46t-35.5 -35q-18 -12 -39 -14t-39 -2h-52v69q5 0 11 -0.5t12 -0.5q14 0 29 1t28 6t21 17t8 35q0 13 -2 25t-8 36l-113 475h86l79 -402l64 402h85zM187 564h-64l53 107h109z" />
    <glyph glyph-name="eth" unicode="&#xf0;" horiz-adv-x="354" 
d="M235 293v56.5t-5 48.5t-16.5 33.5t-34.5 12.5q-24 0 -35 -12t-16 -24q-4 -8 -5.5 -26t-2 -38t-0.5 -37.5v-25.5v-53t0.5 -52.5t1 -42.5t0.5 -22l2.5 -14.5t4.5 -14.5q5 -10 15 -19.5t30 -9.5q22 0 34 11t17.5 26.5t6.5 32.5t1 29q2 26 2 47v47v47zM278 605q8 -14 14 -31
t6 -19q17 -43 19 -106t2 -161q0 -35 -0.5 -63t-2.5 -63q-1 -34 -5 -64.5t-17.5 -53.5t-40.5 -37.5t-74 -15.5q-40 -1 -65.5 9.5t-41.5 27t-23.5 36.5t-10.5 39.5t-2.5 35.5t0.5 24v67v31.5t0.5 48.5t1.5 48.5t2 31.5q2 14 4 21l4 14q8 25 19 39t23 23q22 17 43.5 20.5
t27.5 3.5q32 0 50 -14t29 -28l-10 57.5t-20 57.5l-110 -34l-16 46l97 30q-14 17 -29.5 30.5t-32.5 25.5l67 28l24.5 -19t30.5 -33l7 -10l69 22l17 -48z" />
    <glyph glyph-name="Thorn" unicode="&#xde;" horiz-adv-x="417" 
d="M303 369q0 28 -1 49.5t-6 38t-15 27.5t-29 18q-14 5 -34 5.5t-34 0.5h-46v-258h59q21 0 35.5 0.5t23.5 4.5q18 7 27.5 16.5t14 23t5 32t0.5 42.5zM390 374q0 -69 -13 -109t-37 -61t-57 -26.5t-73 -5.5h-72v-172h-88v706h88v-117h57q62 0 98.5 -9.5t63.5 -44.5
q14 -18 21 -39t9.5 -42t2.5 -41.5v-38.5z" />
    <glyph glyph-name="Yacute" unicode="&#xdd;" horiz-adv-x="396" 
d="M241 286v-286h-91v286l-150 420h93l105 -353l105 353h93zM229 764h-65l53 107h109z" />
    <glyph glyph-name="multiply" unicode="&#xd7;" horiz-adv-x="558" 
d="M392 125l-114 118l-105 -118l-53 48l109 121l-120 123l58 56l116 -119l108 120l51 -50l-110 -121l115 -119z" />
    <glyph glyph-name="Eth" unicode="&#xd0;" horiz-adv-x="437" 
d="M307 332q0 37 -0.5 76t-1 73t-2.5 59t-5 34q-3 10 -7 17.5t-13 15.5q-15 12 -38 15t-57 3h-45v-206h88v-64h-88v-277h43q30 0 50.5 2t34.5 8.5t22 19.5t13 36q2 9 3 28.5t2 44.5t1 55v60zM393 248v-48.5t-2 -48.5q-1 -10 -2.5 -21t-4.5 -21q-8 -29 -21 -47.5t-27.5 -29.5
t-29 -17t-26.5 -9q-17 -4 -39.5 -5t-58.5 -1h-132v355h-49v64h49v287h133q28 0 59.5 -1.5t60 -11.5t51 -33.5t32.5 -66.5q4 -17 4.5 -37.5t1.5 -56.5q1 -27 1 -49v-49v-153z" />
    <glyph glyph-name="brokenbar" unicode="&#xa6;" horiz-adv-x="229" 
d="M74 -249v439h81v-439h-81zM74 308v441h81v-441h-81z" />
    <glyph glyph-name="threesuperior" unicode="&#xb3;" horiz-adv-x="250" 
d="M224 376q0 -18 -2 -30.5t-4 -20.5q-9 -24 -23 -37t-28.5 -19.5t-26 -7.5t-15.5 -1q-20 -1 -34.5 3t-21.5 7q-26 14 -37.5 33.5t-11.5 60.5v43h63v-23q0 -8 -0.5 -19t2.5 -21t10 -16.5t22 -6.5q16 0 24.5 6.5t12 18t3.5 27.5v36q0 25 -8 41.5t-40 16.5q-7 0 -12 -0.5
t-13 -0.5v62q6 0 11 -0.5t11 -0.5q20 0 33 9.5t13 45.5q0 32 -4 50.5t-28 18.5q-12 0 -18 -6.5t-9 -16t-3 -19v-15.5v-23h-63v28q0 9 0.5 28t8.5 37.5t28 33t58 14.5q39 0 59 -16.5t28 -37.5t8.5 -40.5t0.5 -25.5q0 -25 -3 -43.5t-9 -27.5q-8 -12 -23 -22q11 -5 14.5 -8.5
l8.5 -8.5q11 -14 14.5 -42t3.5 -64z" />
    <glyph glyph-name="twosuperior" unicode="&#xb2;" horiz-adv-x="250" 
d="M22 265v60l89 151l20.5 34t13.5 26.5t7.5 26t2.5 34.5v3q0 26 -8.5 37.5t-25.5 11.5q-12 0 -18.5 -6t-9.5 -14t-3 -17v-16v-56h-63v60q0 41 9.5 63.5t33.5 36.5q8 5 21.5 8.5t31.5 3.5q19 0 36.5 -6.5t31 -20t21.5 -36.5t8 -56q0 -48 -14.5 -79.5t-26.5 -51.5l-83 -137
h129v-60h-203z" />
    <glyph glyph-name="onesuperior" unicode="&#xb9;" horiz-adv-x="250" 
d="M96 265v335h-70v55h25t26 3.5t20 13t8 29.5v5h59v-441h-68z" />
    <glyph glyph-name="threequarters" unicode="&#xbe;" horiz-adv-x="625" 
d="M449 155h55l1 184zM224 376q0 -18 -2 -30.5t-4 -20.5q-9 -24 -23 -37t-28.5 -19.5t-26 -7.5t-15.5 -1q-20 -1 -34.5 3t-21.5 7q-26 14 -37.5 33.5t-11.5 60.5v43h63v-23q0 -8 -0.5 -19t2.5 -21t10 -16.5t22 -6.5q16 0 24.5 6.5t12 18t3.5 27.5v36q0 25 -8 41.5t-40 16.5
q-7 0 -12 -0.5t-13 -0.5v62q6 0 11 -0.5t11 -0.5q20 0 33 9.5t13 45.5q0 32 -4 50.5t-28 18.5q-12 0 -18 -6.5t-9 -16t-3 -19v-15.5v-23h-63v28q0 9 0.5 28t8.5 37.5t28 33t58 14.5q39 0 59 -16.5t28 -37.5t8.5 -40.5t0.5 -25.5q0 -25 -3 -43.5t-9 -27.5q-8 -12 -23 -22
q11 -5 14.5 -8.5l8.5 -8.5q11 -14 14.5 -42t3.5 -64zM181 0h-49l348 706h45zM568 96v-96h-64v96h-111v67l88 279h87v-287h38v-59h-38z" />
    <glyph glyph-name="onehalf" unicode="&#xbd;" horiz-adv-x="625" 
d="M96 265v335h-70v55h25t26 3.5t20 13t8 29.5v5h59v-441h-68zM151 0h-49l348 706h45zM397 0v60l89 151l20.5 34t13.5 26.5t7.5 26.5t2.5 35v3q0 26 -8.5 37t-25.5 11q-12 0 -18.5 -6t-9.5 -14t-3 -17v-16v-56h-63v60q0 41 9.5 63.5t33.5 36.5q8 5 21.5 8.5t31.5 3.5
q19 0 36.5 -6.5t31 -20t21.5 -36.5t8 -56q0 -48 -14.5 -79.5t-26.5 -51.5l-83 -137h129v-60h-203z" />
    <glyph glyph-name="onequarter" unicode="&#xbc;" horiz-adv-x="625" 
d="M449 155h55l1 184zM96 265v335h-70v55h25t26 3.5t20 13t8 29.5v5h59v-441h-68zM165 0h-49l347 706h46zM568 96v-96h-64v96h-111v67l88 279h87v-287h38v-59h-38z" />
    <glyph glyph-name="Euro" unicode="&#x20ac;" horiz-adv-x="434" 
d="M380 584q-27 26 -53.5 42.5t-65.5 16.5q-45 0 -65 -20.5t-26.5 -50.5t-5 -65.5t-0.5 -65.5h190l-13 -57h-177v-49h167l-12 -57h-155q-2 -12 -1.5 -24t0.5 -23v-29.5t1.5 -35.5t4.5 -35t9 -27q12 -23 33 -31.5t45 -8.5q42 0 78 16.5t65 45.5v-97q-40 -23 -78.5 -31
t-83.5 -8q-50 0 -88.5 22.5t-56.5 70.5q-8 21 -11.5 45.5t-4.5 50t0 51t1 48.5h-53l12 57h40v49h-51l11 57h41v55q0 41 5.5 82.5t31.5 75.5q27 35 65.5 49t82.5 14q42 0 75 -10t66 -35z" />
    </font>
</defs>
</svg>
